<svg width="1448" height="246" viewBox="0 0 1448 246" fill="none" xmlns="http://www.w3.org/2000/svg">
<g clip-path="url(#clip0)">
<path d="M42.621 98.576H38.8117V94.77H37.152V98.576H33.3428V100.234H37.152V104.04H38.8117V100.234H42.621V98.576Z" fill="#FF8400"/>
<path d="M42.621 193.006H38.8117V189.2H37.152V193.006H33.3428V194.674H37.152V198.47H38.8117V194.674H42.621V193.006Z" fill="#FF8400"/>
<path d="M42.621 177.273H38.8117V173.467H37.152V177.273H33.3428V178.931H37.152V182.737H38.8117V178.931H42.621V177.273Z" fill="#FF8400"/>
<path d="M42.621 161.529H38.8117V157.733H37.152V161.529H33.3428V163.197H37.152V166.993H38.8117V163.197H42.621V161.529Z" fill="#FF8400"/>
<path d="M42.621 145.796H38.8117V141.99H37.152V145.796H33.3428V147.454H37.152V151.26H38.8117V147.454H42.621V145.796Z" fill="#FF8400"/>
<path d="M42.621 130.053H38.8117V126.247H37.152V130.053H33.3428V131.721H37.152V135.517H38.8117V131.721H42.621V130.053Z" fill="#FF8400"/>
<path d="M42.621 114.319H38.8117V110.513H37.152V114.319H33.3428V115.977H37.152V119.783H38.8117V115.977H42.621V114.319Z" fill="#FF8400"/>
<path d="M26.2753 114.838H22.466V111.032H20.8063V114.838H16.9971V116.497H20.8063V120.303H22.466V116.497H26.2753V114.838Z" fill="#FF8400"/>
<path d="M9.27821 114.838H5.46894V111.032H3.80926V114.838H0V116.497H3.80926V120.303H5.46894V116.497H9.27821V114.838Z" fill="#FF8400"/>
<path d="M26.2753 209.268H22.466V205.462H20.8063V209.268H16.9971V210.937H20.8063V214.733H22.466V210.937H26.2753V209.268Z" fill="#FF8400"/>
<path d="M26.2753 193.535H22.466V189.729H20.8063V193.535H16.9971V195.193H20.8063V198.999H22.466V195.193H26.2753V193.535Z" fill="#FF8400"/>
<path d="M26.2753 177.792H22.466V173.996H20.8063V177.792H16.9971V179.46H20.8063V183.256H22.466V179.46H26.2753V177.792Z" fill="#FF8400"/>
<path d="M26.2753 162.059H22.466V158.253H20.8063V162.059H16.9971V163.717H20.8063V167.523H22.466V163.717H26.2753V162.059Z" fill="#FF8400"/>
<path d="M9.27821 162.059H5.46894V158.253H3.80926V162.059H0V163.717H3.80926V167.523H5.46894V163.717H9.27821V162.059Z" fill="#FF8400"/>
<path d="M26.2753 146.315H22.466V142.509H20.8063V146.315H16.9971V147.983H20.8063V151.779H22.466V147.983H26.2753V146.315Z" fill="#FF8400"/>
<path d="M9.27821 146.315H5.46894V142.509H3.80926V146.315H0V147.983H3.80926V151.779H5.46894V147.983H9.27821V146.315Z" fill="#FF8400"/>
<path d="M26.2753 130.582H22.466V126.776H20.8063V130.582H16.9971V132.24H20.8063V136.046H22.466V132.24H26.2753V130.582Z" fill="#FF8400"/>
<path d="M9.27821 130.582H5.46894V126.776H3.80926V130.582H0V132.24H3.80926V136.046H5.46894V132.24H9.27821V130.582Z" fill="#FF8400"/>
<path d="M58.9579 82.6724H55.1486V78.8665H53.489V82.6724H49.6797V84.3307H53.489V88.1367H55.1486V84.3307H58.9579V82.6724Z" fill="#FF8400"/>
<path d="M58.9579 161.359H55.1486V157.553H53.489V161.359H49.6797V163.017H53.489V166.823H55.1486V163.017H58.9579V161.359Z" fill="#FF8400"/>
<path d="M58.9579 145.626H55.1486V141.82H53.489V145.626H49.6797V147.284H53.489V151.09H55.1486V147.284H58.9579V145.626Z" fill="#FF8400"/>
<path d="M58.9579 129.883H55.1486V126.077H53.489V129.883H49.6797V131.541H53.489V135.347H55.1486V131.541H58.9579V129.883Z" fill="#FF8400"/>
<path d="M58.9579 114.139H55.1486V110.343H53.489V114.139H49.6797V115.807H53.489V119.613H55.1486V115.807H58.9579V114.139Z" fill="#FF8400"/>
<path d="M58.9579 98.4056H55.1486V94.5996H53.489V98.4056H49.6797V100.064H53.489V103.87H55.1486V100.064H58.9579V98.4056Z" fill="#FF8400"/>
<path d="M106.46 129.813H102.651V126.007H100.991V129.813H97.1816V131.471H100.991V135.277H102.651V131.471H106.46V129.813Z" fill="#FF8400"/>
<path d="M106.46 208.51H102.651V204.704H100.991V208.51H97.1816V210.168H100.991V213.974H102.651V210.168H106.46V208.51Z" fill="#FF8400"/>
<path d="M106.46 192.766H102.651V188.96H100.991V192.766H97.1816V194.424H100.991V198.23H102.651V194.424H106.46V192.766Z" fill="#FF8400"/>
<path d="M106.46 177.033H102.651V173.227H100.991V177.033H97.1816V178.691H100.991V182.497H102.651V178.691H106.46V177.033Z" fill="#FF8400"/>
<path d="M106.46 161.289H102.651V157.483H100.991V161.289H97.1816V162.948H100.991V166.754H102.651V162.948H106.46V161.289Z" fill="#FF8400"/>
<path d="M106.46 145.556H102.651V141.75H100.991V145.556H97.1816V147.214H100.991V151.02H102.651V147.214H106.46V145.556Z" fill="#FF8400"/>
<path d="M122.526 114.459H118.717V110.653H117.057V114.459H113.248V116.117H117.057V119.923H118.717V116.117H122.526V114.459Z" fill="#FF8400"/>
<path d="M122.526 193.146H118.717V189.34H117.057V193.146H113.248V194.804H117.057V198.61H118.717V194.804H122.526V193.146Z" fill="#FF8400"/>
<path d="M122.526 177.412H118.717V173.606H117.057V177.412H113.248V179.071H117.057V182.877H118.717V179.071H122.526V177.412Z" fill="#FF8400"/>
<path d="M122.526 161.669H118.717V157.863H117.057V161.669H113.248V163.327H117.057V167.133H118.717V163.327H122.526V161.669Z" fill="#FF8400"/>
<path d="M122.526 145.936H118.717V142.13H117.057V145.936H113.248V147.594H117.057V151.4H118.717V147.594H122.526V145.936Z" fill="#FF8400"/>
<path d="M122.526 130.192H118.717V126.386H117.057V130.192H113.248V131.851H117.057V135.657H118.717V131.851H122.526V130.192Z" fill="#FF8400"/>
<path d="M139.593 129.393H135.783V125.597H134.124V129.393H130.314V131.061H134.124V134.867H135.783V131.061H139.593V129.393Z" fill="#FF8400"/>
<path d="M139.593 208.09H135.783V204.284H134.124V208.09H130.314V209.748H134.124V213.554H135.783V209.748H139.593V208.09Z" fill="#FF8400"/>
<path d="M139.593 224.003H135.783V220.197H134.124V224.003H130.314V225.661H134.124V229.467H135.783V225.661H139.593V224.003Z" fill="#FF8400"/>
<path d="M139.593 192.357H135.783V188.551H134.124V192.357H130.314V194.015H134.124V197.821H135.783V194.015H139.593V192.357Z" fill="#FF8400"/>
<path d="M139.593 176.613H135.783V172.807H134.124V176.613H130.314V178.271H134.124V182.077H135.783V178.271H139.593V176.613Z" fill="#FF8400"/>
<path d="M155.34 208.09H151.53V204.284H149.871V208.09H146.062V209.748H149.871V213.554H151.53V209.748H155.34V208.09Z" fill="#FF8400"/>
<path d="M155.34 224.003H151.53V220.197H149.871V224.003H146.062V225.661H149.871V229.467H151.53V225.661H155.34V224.003Z" fill="#FF8400"/>
<path d="M155.34 192.357H151.53V188.551H149.871V192.357H146.062V194.015H149.871V197.821H151.53V194.015H155.34V192.357Z" fill="#FF8400"/>
<path d="M155.34 176.613H151.53V172.807H149.871V176.613H146.062V178.271H149.871V182.077H151.53V178.271H155.34V176.613Z" fill="#FF8400"/>
<path d="M205.19 192.876H201.391V189.07H199.721V192.876H195.912V194.535H199.721V198.341H201.391V194.535H205.19V192.876Z" fill="#FF8400"/>
<path d="M205.19 177.133H201.391V173.327H199.721V177.133H195.912V178.791H199.721V182.597H201.391V178.791H205.19V177.133Z" fill="#FF8400"/>
<path d="M205.19 161.389H201.391V157.593H199.721V161.389H195.912V163.057H199.721V166.863H201.391V163.057H205.19V161.389Z" fill="#FF8400"/>
<path d="M172.377 161.049H168.568V157.243H166.908V161.049H163.099V162.708H166.908V166.514H168.568V162.708H172.377V161.049Z" fill="#FF8400"/>
<path d="M172.377 176.963H168.568V173.157H166.908V176.963H163.099V178.621H166.908V182.427H168.568V178.621H172.377V176.963Z" fill="#FF8400"/>
<path d="M172.377 192.457H168.568V188.651H166.908V192.457H163.099V194.115H166.908V197.921H168.568V194.115H172.377V192.457Z" fill="#FF8400"/>
<path d="M172.377 145.306H168.568V141.5H166.908V145.306H163.099V146.975H166.908V150.771H168.568V146.975H172.377V145.306Z" fill="#FF8400"/>
<path d="M172.377 129.573H168.568V125.767H166.908V129.573H163.099V131.231H166.908V135.037H168.568V131.231H172.377V129.573Z" fill="#FF8400"/>
<path d="M139.593 160.88H135.783V157.074H134.124V160.88H130.314V162.538H134.124V166.344H135.783V162.538H139.593V160.88Z" fill="#FF8400"/>
<path d="M139.593 145.137H135.783V141.331H134.124V145.137H130.314V146.795H134.124V150.601H135.783V146.795H139.593V145.137Z" fill="#FF8400"/>
<path d="M221.117 129.673H217.308V125.867H215.648V129.673H211.839V131.331H215.648V135.137H217.308V131.331H221.117V129.673Z" fill="#FF8400"/>
<path d="M221.117 208.369H217.308V204.563H215.648V208.369H211.839V210.028H215.648V213.834H217.308V210.028H221.117V208.369Z" fill="#FF8400"/>
<path d="M221.117 224.283H217.308V220.477H215.648V224.283H211.839V225.941H215.648V229.747H217.308V225.941H221.117V224.283Z" fill="#FF8400"/>
<path d="M221.117 192.626H217.308V188.82H215.648V192.626H211.839V194.285H215.648V198.091H217.308V194.285H221.117V192.626Z" fill="#FF8400"/>
<path d="M221.117 176.893H217.308V173.087H215.648V176.893H211.839V178.551H215.648V182.357H217.308V178.551H221.117V176.893Z" fill="#FF8400"/>
<path d="M221.117 161.149H217.308V157.344H215.648V161.149H211.839V162.818H215.648V166.614H217.308V162.818H221.117V161.149Z" fill="#FF8400"/>
<path d="M221.117 145.416H217.308V141.61H215.648V145.416H211.839V147.074H215.648V150.88H217.308V147.074H221.117V145.416Z" fill="#FF8400"/>
<path d="M237.594 82.4927H233.794V78.6868H232.125V82.4927H228.315V84.151H232.125V87.957H233.794V84.151H237.594V82.4927Z" fill="#FF8400"/>
<path d="M237.594 161.19H233.794V157.384H232.125V161.19H228.315V162.848H232.125V166.654H233.794V162.848H237.594V161.19Z" fill="#FF8400"/>
<path d="M237.594 177.093H233.794V173.297H232.125V177.093H228.315V178.761H232.125V182.567H233.794V178.761H237.594V177.093Z" fill="#FF8400"/>
<path d="M237.594 145.446H233.794V141.64H232.125V145.446H228.315V147.105H232.125V150.911H233.794V147.105H237.594V145.446Z" fill="#FF8400"/>
<path d="M237.594 129.713H233.794V125.907H232.125V129.713H228.315V131.371H232.125V135.177H233.794V131.371H237.594V129.713Z" fill="#FF8400"/>
<path d="M237.594 113.969H233.794V110.163H232.125V113.969H228.315V115.628H232.125V119.434H233.794V115.628H237.594V113.969Z" fill="#FF8400"/>
<path d="M237.594 98.2359H233.794V94.4299H232.125V98.2359H228.315V99.8942H232.125V103.7H233.794V99.8942H237.594V98.2359Z" fill="#FF8400"/>
<path d="M254.49 98.1263H250.681V94.3203H249.021V98.1263H245.212V99.7945H249.021V103.591H250.681V99.7945H254.49V98.1263Z" fill="#FF8400"/>
<path d="M254.49 176.823H250.681V173.017H249.021V176.823H245.212V178.481H249.021V182.287H250.681V178.481H254.49V176.823Z" fill="#FF8400"/>
<path d="M254.49 192.736H250.681V188.93H249.021V192.736H245.212V194.394H249.021V198.2H250.681V194.394H254.49V192.736Z" fill="#FF8400"/>
<path d="M254.49 208.369H250.681V204.563H249.021V208.369H245.212V210.028H249.021V213.834H250.681V210.028H254.49V208.369Z" fill="#FF8400"/>
<path d="M254.49 224.283H250.681V220.477H249.021V224.283H245.212V225.941H249.021V229.747H250.681V225.941H254.49V224.283Z" fill="#FF8400"/>
<path d="M254.49 161.08H250.681V157.274H249.021V161.08H245.212V162.748H249.021V166.544H250.681V162.748H254.49V161.08Z" fill="#FF8400"/>
<path d="M254.49 145.346H250.681V141.54H249.021V145.346H245.212V147.005H249.021V150.811H250.681V147.005H254.49V145.346Z" fill="#FF8400"/>
<path d="M318.609 176.823H314.8V173.017H313.14V176.823H309.331V178.481H313.14V182.287H314.8V178.481H318.609V176.823Z" fill="#FF8400"/>
<path d="M318.609 192.736H314.8V188.93H313.14V192.736H309.331V194.394H313.14V198.2H314.8V194.394H318.609V192.736Z" fill="#FF8400"/>
<path d="M318.609 161.08H314.8V157.274H313.14V161.08H309.331V162.748H313.14V166.544H314.8V162.748H318.609V161.08Z" fill="#FF8400"/>
<path d="M318.609 145.346H314.8V141.54H313.14V145.346H309.331V147.005H313.14V150.811H314.8V147.005H318.609V145.346Z" fill="#FF8400"/>
<path d="M254.49 129.603H250.681V125.797H249.021V129.603H245.212V131.261H249.021V135.067H250.681V131.261H254.49V129.603Z" fill="#FF8400"/>
<path d="M254.49 113.869H250.681V110.063H249.021V113.869H245.212V115.528H249.021V119.334H250.681V115.528H254.49V113.869Z" fill="#FF8400"/>
<path d="M351.842 176.823H348.032V173.017H346.373V176.823H342.563V178.481H346.373V182.287H348.032V178.481H351.842V176.823Z" fill="#FF8400"/>
<path d="M351.842 192.736H348.032V188.93H346.373V192.736H342.563V194.394H346.373V198.2H348.032V194.394H351.842V192.736Z" fill="#FF8400"/>
<path d="M351.842 161.08H348.032V157.274H346.373V161.08H342.563V162.748H346.373V166.544H348.032V162.748H351.842V161.08Z" fill="#FF8400"/>
<path d="M351.842 145.346H348.032V141.54H346.373V145.346H342.563V147.005H346.373V150.811H348.032V147.005H351.842V145.346Z" fill="#FF8400"/>
<path d="M351.842 129.603H348.032V125.797H346.373V129.603H342.563V131.261H346.373V135.067H348.032V131.261H351.842V129.603Z" fill="#FF8400"/>
<path d="M351.842 113.869H348.032V110.063H346.373V113.869H342.563V115.528H346.373V119.334H348.032V115.528H351.842V113.869Z" fill="#FF8400"/>
<path d="M384.106 176.823H380.307V173.017H378.637V176.823H374.828V178.481H378.637V182.287H380.307V178.481H384.106V176.823Z" fill="#FF8400"/>
<path d="M384.106 192.736H380.307V188.93H378.637V192.736H374.828V194.394H378.637V198.2H380.307V194.394H384.106V192.736Z" fill="#FF8400"/>
<path d="M384.106 161.08H380.307V157.274H378.637V161.08H374.828V162.748H378.637V166.544H380.307V162.748H384.106V161.08Z" fill="#FF8400"/>
<path d="M384.106 145.346H380.307V141.54H378.637V145.346H374.828V147.005H378.637V150.811H380.307V147.005H384.106V145.346Z" fill="#FF8400"/>
<path d="M384.106 129.603H380.307V125.797H378.637V129.603H374.828V131.261H378.637V135.067H380.307V131.261H384.106V129.603Z" fill="#FF8400"/>
<path d="M384.106 113.869H380.307V110.063H378.637V113.869H374.828V115.528H378.637V119.334H380.307V115.528H384.106V113.869Z" fill="#FF8400"/>
<path d="M400.732 145.416H396.922V141.61H395.253V145.416H391.443V147.074H395.253V150.88H396.922V147.074H400.732V145.416Z" fill="#FF8400"/>
<path d="M400.732 161.329H396.922V157.523H395.253V161.329H391.443V162.988H395.253V166.794H396.922V162.988H400.732V161.329Z" fill="#FF8400"/>
<path d="M400.732 129.673H396.922V125.867H395.253V129.673H391.443V131.331H395.253V135.137H396.922V131.331H400.732V129.673Z" fill="#FF8400"/>
<path d="M400.732 113.94H396.922V110.134H395.253V113.94H391.443V115.598H395.253V119.404H396.922V115.598H400.732V113.94Z" fill="#FF8400"/>
<path d="M400.732 98.1959H396.922V94.3899H395.253V98.1959H391.443V99.8541H395.253V103.66H396.922V99.8541H400.732V98.1959Z" fill="#FF8400"/>
<path d="M400.732 82.4627H396.922V78.6567H395.253V82.4627H391.443V84.121H395.253V87.9269H396.922V84.121H400.732V82.4627Z" fill="#FF8400"/>
<path d="M400.732 67.0989H396.922V63.293H395.253V67.0989H391.443V68.7672H395.253V72.5632H396.922V68.7672H400.732V67.0989Z" fill="#FF8400"/>
<path d="M433.546 129.503H429.737V125.697H428.077V129.503H424.268V131.161H428.077V134.967H429.737V131.161H433.546V129.503Z" fill="#FF8400"/>
<path d="M433.546 145.416H429.737V141.61H428.077V145.416H424.268V147.074H428.077V150.88H429.737V147.074H433.546V145.416Z" fill="#FF8400"/>
<path d="M433.546 113.76H429.737V109.954H428.077V113.76H424.268V115.428H428.077V119.224H429.737V115.428H433.546V113.76Z" fill="#FF8400"/>
<path d="M433.546 98.0262H429.737V94.2202H428.077V98.0262H424.268V99.6844H428.077V103.49H429.737V99.6844H433.546V98.0262Z" fill="#FF8400"/>
<path d="M433.546 82.1031H429.737V78.2971H428.077V82.1031H424.268V83.7613H428.077V87.5673H429.737V83.7613H433.546V82.1031Z" fill="#FF8400"/>
<path d="M433.546 66.5496H429.737V62.7437H428.077V66.5496H424.268V68.2079H428.077V72.0139H429.737V68.2079H433.546V66.5496Z" fill="#FF8400"/>
<path d="M433.546 51.1859H429.737V47.3899H428.077V51.1859H424.268V52.8541H428.077V56.6601H429.737V52.8541H433.546V51.1859Z" fill="#FF8400"/>
<path d="M466.779 129.083H462.97V125.277H461.31V129.083H457.501V130.752H461.31V134.548H462.97V130.752H466.779V129.083Z" fill="#FF8400"/>
<path d="M466.779 144.997H462.97V141.191H461.31V144.997H457.501V146.655H461.31V150.461H462.97V146.655H466.779V144.997Z" fill="#FF8400"/>
<path d="M466.779 161.329H462.97V157.523H461.31V161.329H457.501V162.988H461.31V166.794H462.97V162.988H466.779V161.329Z" fill="#FF8400"/>
<path d="M466.779 113.35H462.97V109.544H461.31V113.35H457.501V115.008H461.31V118.814H462.97V115.008H466.779V113.35Z" fill="#FF8400"/>
<path d="M482.847 129.083H479.037V125.277H477.378V129.083H473.568V130.752H477.378V134.548H479.037V130.752H482.847V129.083Z" fill="#FF8400"/>
<path d="M482.847 144.997H479.037V141.191H477.378V144.997H473.568V146.655H477.378V150.461H479.037V146.655H482.847V144.997Z" fill="#FF8400"/>
<path d="M482.847 113.35H479.037V109.544H477.378V113.35H473.568V115.008H477.378V118.814H479.037V115.008H482.847V113.35Z" fill="#FF8400"/>
<path d="M466.779 97.6068H462.97V93.8008H461.31V97.6068H457.501V99.275H461.31V103.071H462.97V99.275H466.779V97.6068Z" fill="#FF8400"/>
<path d="M466.779 82.1031H462.97V78.2971H461.31V82.1031H457.501V83.7613H461.31V87.5673H462.97V83.7613H466.779V82.1031Z" fill="#FF8400"/>
<path d="M516.501 129.083H512.692V125.277H511.032V129.083H507.223V130.752H511.032V134.548H512.692V130.752H516.501V129.083Z" fill="#FF8400"/>
<path d="M516.501 144.997H512.692V141.191H511.032V144.997H507.223V146.655H511.032V150.461H512.692V146.655H516.501V144.997Z" fill="#FF8400"/>
<path d="M516.501 113.35H512.692V109.544H511.032V113.35H507.223V115.008H511.032V118.814H512.692V115.008H516.501V113.35Z" fill="#FF8400"/>
<path d="M516.501 97.6068H512.692V93.8008H511.032V97.6068H507.223V99.275H511.032V103.071H512.692V99.275H516.501V97.6068Z" fill="#FF8400"/>
<path d="M516.501 82.1031H512.692V78.2971H511.032V82.1031H507.223V83.7613H511.032V87.5673H512.692V83.7613H516.501V82.1031Z" fill="#FF8400"/>
<path d="M466.779 66.1302H462.97V62.3242H461.31V66.1302H457.501V67.7984H461.31V71.5944H462.97V67.7984H466.779V66.1302Z" fill="#FF8400"/>
<path d="M532.417 129.083H528.608V125.277H526.948V129.083H523.139V130.752H526.948V134.548H528.608V130.752H532.417V129.083Z" fill="#FF8400"/>
<path d="M532.417 144.997H528.608V141.191H526.948V144.997H523.139V146.655H526.948V150.461H528.608V146.655H532.417V144.997Z" fill="#FF8400"/>
<path d="M532.417 161.329H528.608V157.523H526.948V161.329H523.139V162.988H526.948V166.794H528.608V162.988H532.417V161.329Z" fill="#FF8400"/>
<path d="M532.417 176.683H528.608V172.877H526.948V176.683H523.139V178.342H526.948V182.148H528.608V178.342H532.417V176.683Z" fill="#FF8400"/>
<path d="M614.401 129.083H610.592V125.277H608.932V129.083H605.123V130.752H608.932V134.548H610.592V130.752H614.401V129.083Z" fill="#FF8400"/>
<path d="M614.401 144.997H610.592V141.191H608.932V144.997H605.123V146.655H608.932V150.461H610.592V146.655H614.401V144.997Z" fill="#FF8400"/>
<path d="M614.401 161.329H610.592V157.523H608.932V161.329H605.123V162.988H608.932V166.794H610.592V162.988H614.401V161.329Z" fill="#FF8400"/>
<path d="M614.401 176.683H610.592V172.877H608.932V176.683H605.123V178.342H608.932V182.148H610.592V178.342H614.401V176.683Z" fill="#FF8400"/>
<path d="M532.417 113.35H528.608V109.544H526.948V113.35H523.139V115.008H526.948V118.814H528.608V115.008H532.417V113.35Z" fill="#FF8400"/>
<path d="M532.417 97.6068H528.608V93.8008H526.948V97.6068H523.139V99.275H526.948V103.071H528.608V99.275H532.417V97.6068Z" fill="#FF8400"/>
<path d="M532.417 82.1031H528.608V78.2971H526.948V82.1031H523.139V83.7613H526.948V87.5673H528.608V83.7613H532.417V82.1031Z" fill="#FF8400"/>
<path d="M680.459 129.083H676.65V125.277H674.99V129.083H671.181V130.752H674.99V134.548H676.65V130.752H680.459V129.083Z" fill="#FF8400"/>
<path d="M680.459 144.997H676.65V141.191H674.99V144.997H671.181V146.655H674.99V150.461H676.65V146.655H680.459V144.997Z" fill="#FF8400"/>
<path d="M680.459 161.329H676.65V157.523H674.99V161.329H671.181V162.988H674.99V166.794H676.65V162.988H680.459V161.329Z" fill="#FF8400"/>
<path d="M680.459 176.683H676.65V172.877H674.99V176.683H671.181V178.342H674.99V182.148H676.65V178.342H680.459V176.683Z" fill="#FF8400"/>
<path d="M680.459 113.35H676.65V109.544H674.99V113.35H671.181V115.008H674.99V118.814H676.65V115.008H680.459V113.35Z" fill="#FF8400"/>
<path d="M680.459 97.6068H676.65V93.8008H674.99V97.6068H671.181V99.275H674.99V103.071H676.65V99.275H680.459V97.6068Z" fill="#FF8400"/>
<path d="M680.459 82.1031H676.65V78.2971H674.99V82.1031H671.181V83.7613H674.99V87.5673H676.65V83.7613H680.459V82.1031Z" fill="#FF8400"/>
<path d="M697.216 82.3231H693.406V78.5171H691.747V82.3231H687.938V83.9813H691.747V87.7873H693.406V83.9813H697.216V82.3231Z" fill="#FF8400"/>
<path d="M697.216 98.2359H693.406V94.4299H691.747V98.2359H687.938V99.8942H691.747V103.7H693.406V99.8942H697.216V98.2359Z" fill="#FF8400"/>
<path d="M697.216 114.559H693.406V110.753H691.747V114.559H687.938V116.217H691.747V120.023H693.406V116.217H697.216V114.559Z" fill="#FF8400"/>
<path d="M697.216 129.923H693.406V126.117H691.747V129.923H687.938V131.581H691.747V135.387H693.406V131.581H697.216V129.923Z" fill="#FF8400"/>
<path d="M697.216 66.5794H693.406V62.7734H691.747V66.5794H687.938V68.2476H691.747V72.0436H693.406V68.2476H697.216V66.5794Z" fill="#FF8400"/>
<path d="M697.216 50.846H693.406V47.04H691.747V50.846H687.938V52.5043H691.747V56.3102H693.406V52.5043H697.216V50.846Z" fill="#FF8400"/>
<path d="M697.216 35.3424H693.406V31.5364H691.747V35.3424H687.938V37.0006H691.747V40.8066H693.406V37.0006H697.216V35.3424Z" fill="#FF8400"/>
<path d="M713.132 82.3231H709.333V78.5171H707.664V82.3231H703.864V83.9813H707.664V87.7873H709.333V83.9813H713.132V82.3231Z" fill="#FF8400"/>
<path d="M713.132 98.2359H709.333V94.4299H707.664V98.2359H703.864V99.8942H707.664V103.7H709.333V99.8942H713.132V98.2359Z" fill="#FF8400"/>
<path d="M713.132 114.559H709.333V110.753H707.664V114.559H703.864V116.217H707.664V120.023H709.333V116.217H713.132V114.559Z" fill="#FF8400"/>
<path d="M713.132 129.923H709.333V126.117H707.664V129.923H703.864V131.581H707.664V135.387H709.333V131.581H713.132V129.923Z" fill="#FF8400"/>
<path d="M713.132 66.5794H709.333V62.7734H707.664V66.5794H703.864V68.2476H707.664V72.0436H709.333V68.2476H713.132V66.5794Z" fill="#FF8400"/>
<path d="M730.029 82.3231H726.22V78.5171H724.56V82.3231H720.751V83.9813H724.56V87.7873H726.22V83.9813H730.029V82.3231Z" fill="#FF8400"/>
<path d="M730.029 98.2359H726.22V94.4299H724.56V98.2359H720.751V99.8942H724.56V103.7H726.22V99.8942H730.029V98.2359Z" fill="#FF8400"/>
<path d="M730.029 114.559H726.22V110.753H724.56V114.559H720.751V116.217H724.56V120.023H726.22V116.217H730.029V114.559Z" fill="#FF8400"/>
<path d="M730.029 129.923H726.22V126.117H724.56V129.923H720.751V131.581H724.56V135.387H726.22V131.581H730.029V129.923Z" fill="#FF8400"/>
<path d="M730.029 66.5794H726.22V62.7734H724.56V66.5794H720.751V68.2476H724.56V72.0436H726.22V68.2476H730.029V66.5794Z" fill="#FF8400"/>
<path d="M713.132 50.846H709.333V47.04H707.664V50.846H703.864V52.5043H707.664V56.3102H709.333V52.5043H713.132V50.846Z" fill="#FF8400"/>
<path d="M713.132 145.277H709.333V141.471H707.664V145.277H703.864V146.935H707.664V150.741H709.333V146.935H713.132V145.277Z" fill="#FF8400"/>
<path d="M760.773 82.3231H756.964V78.5171H755.304V82.3231H751.495V83.9813H755.304V87.7873H756.964V83.9813H760.773V82.3231Z" fill="#FF8400"/>
<path d="M760.773 98.2359H756.964V94.4299H755.304V98.2359H751.495V99.8942H755.304V103.7H756.964V99.8942H760.773V98.2359Z" fill="#FF8400"/>
<path d="M760.773 114.559H756.964V110.753H755.304V114.559H751.495V116.217H755.304V120.023H756.964V116.217H760.773V114.559Z" fill="#FF8400"/>
<path d="M760.773 129.923H756.964V126.117H755.304V129.923H751.495V131.581H755.304V135.387H756.964V131.581H760.773V129.923Z" fill="#FF8400"/>
<path d="M760.773 66.5794H756.964V62.7734H755.304V66.5794H751.495V68.2476H755.304V72.0436H756.964V68.2476H760.773V66.5794Z" fill="#FF8400"/>
<path d="M760.773 50.846H756.964V47.04H755.304V50.846H751.495V52.5043H755.304V56.3102H756.964V52.5043H760.773V50.846Z" fill="#FF8400"/>
<path d="M760.773 145.277H756.964V141.471H755.304V145.277H751.495V146.935H755.304V150.741H756.964V146.935H760.773V145.277Z" fill="#FF8400"/>
<path d="M744.016 35.2825H740.207V31.4766H738.548V35.2825H734.738V36.9408H738.548V40.7468H740.207V36.9408H744.016V35.2825Z" fill="#FF8400"/>
<path d="M744.016 51.1859H740.207V47.3899H738.548V51.1859H734.738V52.8541H738.548V56.6601H740.207V52.8541H744.016V51.1859Z" fill="#FF8400"/>
<path d="M744.016 67.5184H740.207V63.7124H738.548V67.5184H734.738V69.1766H738.548V72.9826H740.207V69.1766H744.016V67.5184Z" fill="#FF8400"/>
<path d="M744.016 82.8724H740.207V79.0664H738.548V82.8724H734.738V84.5306H738.548V88.3366H740.207V84.5306H744.016V82.8724Z" fill="#FF8400"/>
<path d="M744.016 19.5394H740.207V15.7334H738.548V19.5394H734.738V21.1976H738.548V25.0036H740.207V21.1976H744.016V19.5394Z" fill="#FF8400"/>
<path d="M744.016 3.80598H740.207V0H738.548V3.80598H734.738V5.46422H738.548V9.2702H740.207V5.46422H744.016V3.80598Z" fill="#FF8400"/>
<path d="M744.016 98.2359H740.207V94.4299H738.548V98.2359H734.738V99.8942H738.548V103.7H740.207V99.8942H744.016V98.2359Z" fill="#FF8400"/>
<path d="M791.797 114.559H787.988V110.753H786.328V114.559H782.519V116.217H786.328V120.023H787.988V116.217H791.797V114.559Z" fill="#FF8400"/>
<path d="M791.797 129.923H787.988V126.117H786.328V129.923H782.519V131.581H786.328V135.387H787.988V131.581H791.797V129.923Z" fill="#FF8400"/>
<path d="M791.797 35.2825H787.988V31.4766H786.328V35.2825H782.519V36.9408H786.328V40.7468H787.988V36.9408H791.797V35.2825Z" fill="#FF8400"/>
<path d="M791.797 51.1859H787.988V47.3899H786.328V51.1859H782.519V52.8541H786.328V56.6601H787.988V52.8541H791.797V51.1859Z" fill="#FF8400"/>
<path d="M791.797 67.5184H787.988V63.7124H786.328V67.5184H782.519V69.1766H786.328V72.9826H787.988V69.1766H791.797V67.5184Z" fill="#FF8400"/>
<path d="M791.797 82.8724H787.988V79.0664H786.328V82.8724H782.519V84.5306H786.328V88.3366H787.988V84.5306H791.797V82.8724Z" fill="#FF8400"/>
<path d="M791.797 19.5394H787.988V15.7334H786.328V19.5394H782.519V21.1976H786.328V25.0036H787.988V21.1976H791.797V19.5394Z" fill="#FF8400"/>
<path d="M791.797 3.80598H787.988V0H786.328V3.80598H782.519V5.46422H786.328V9.2702H787.988V5.46422H791.797V3.80598Z" fill="#FF8400"/>
<path d="M791.797 98.2359H787.988V94.4299H786.328V98.2359H782.519V99.8942H786.328V103.7H787.988V99.8942H791.797V98.2359Z" fill="#FF8400"/>
<path d="M906.864 114.559H903.065V110.753H901.395V114.559H897.586V116.217H901.395V120.023H903.065V116.217H906.864V114.559Z" fill="#FF8400"/>
<path d="M906.864 129.923H903.065V126.117H901.395V129.923H897.586V131.581H901.395V135.387H903.065V131.581H906.864V129.923Z" fill="#FF8400"/>
<path d="M906.864 35.2825H903.065V31.4766H901.395V35.2825H897.586V36.9408H901.395V40.7468H903.065V36.9408H906.864V35.2825Z" fill="#FF8400"/>
<path d="M906.864 51.1859H903.065V47.3899H901.395V51.1859H897.586V52.8541H901.395V56.6601H903.065V52.8541H906.864V51.1859Z" fill="#FF8400"/>
<path d="M906.864 67.5184H903.065V63.7124H901.395V67.5184H897.586V69.1766H901.395V72.9826H903.065V69.1766H906.864V67.5184Z" fill="#FF8400"/>
<path d="M906.864 82.8724H903.065V79.0664H901.395V82.8724H897.586V84.5306H901.395V88.3366H903.065V84.5306H906.864V82.8724Z" fill="#FF8400"/>
<path d="M906.864 19.5394H903.065V15.7334H901.395V19.5394H897.586V21.1976H901.395V25.0036H903.065V21.1976H906.864V19.5394Z" fill="#FF8400"/>
<path d="M906.864 3.80598H903.065V0H901.395V3.80598H897.586V5.46422H901.395V9.2702H903.065V5.46422H906.864V3.80598Z" fill="#FF8400"/>
<path d="M1003.26 35.2825H999.447V31.4766H997.777V35.2825H993.968V36.9408H997.777V40.7468H999.447V36.9408H1003.26V35.2825Z" fill="#FF8400"/>
<path d="M1003.26 51.1859H999.447V47.3899H997.777V51.1859H993.968V52.8541H997.777V56.6601H999.447V52.8541H1003.26V51.1859Z" fill="#FF8400"/>
<path d="M1003.26 67.5184H999.447V63.7124H997.777V67.5184H993.968V69.1766H997.777V72.9826H999.447V69.1766H1003.26V67.5184Z" fill="#FF8400"/>
<path d="M1003.26 19.5394H999.447V15.7334H997.777V19.5394H993.968V21.1976H997.777V25.0036H999.447V21.1976H1003.26V19.5394Z" fill="#FF8400"/>
<path d="M1003.26 3.80598H999.447V0H997.777V3.80598H993.968V5.46422H997.777V9.2702H999.447V5.46422H1003.26V3.80598Z" fill="#FF8400"/>
<path d="M906.864 98.2359H903.065V94.4299H901.395V98.2359H897.586V99.8942H901.395V103.7H903.065V99.8942H906.864V98.2359Z" fill="#FF8400"/>
<path d="M939.898 114.559H936.089V110.753H934.429V114.559H930.62V116.217H934.429V120.023H936.089V116.217H939.898V114.559Z" fill="#FF8400"/>
<path d="M939.898 35.2825H936.089V31.4766H934.429V35.2825H930.62V36.9408H934.429V40.7468H936.089V36.9408H939.898V35.2825Z" fill="#FF8400"/>
<path d="M939.898 51.1859H936.089V47.3899H934.429V51.1859H930.62V52.8541H934.429V56.6601H936.089V52.8541H939.898V51.1859Z" fill="#FF8400"/>
<path d="M939.898 67.5184H936.089V63.7124H934.429V67.5184H930.62V69.1766H934.429V72.9826H936.089V69.1766H939.898V67.5184Z" fill="#FF8400"/>
<path d="M939.898 82.8724H936.089V79.0664H934.429V82.8724H930.62V84.5306H934.429V88.3366H936.089V84.5306H939.898V82.8724Z" fill="#FF8400"/>
<path d="M939.898 19.5394H936.089V15.7334H934.429V19.5394H930.62V21.1976H934.429V25.0036H936.089V21.1976H939.898V19.5394Z" fill="#FF8400"/>
<path d="M939.898 98.2359H936.089V94.4299H934.429V98.2359H930.62V99.8942H934.429V103.7H936.089V99.8942H939.898V98.2359Z" fill="#FF8400"/>
<path d="M824.341 114.559H820.531V110.753H818.862V114.559H815.062V116.217H818.862V120.023H820.531V116.217H824.341V114.559Z" fill="#FF8400"/>
<path d="M824.341 35.2825H820.531V31.4766H818.862V35.2825H815.062V36.9408H818.862V40.7468H820.531V36.9408H824.341V35.2825Z" fill="#FF8400"/>
<path d="M824.341 51.1859H820.531V47.3899H818.862V51.1859H815.062V52.8541H818.862V56.6601H820.531V52.8541H824.341V51.1859Z" fill="#FF8400"/>
<path d="M824.341 67.5184H820.531V63.7124H818.862V67.5184H815.062V69.1766H818.862V72.9826H820.531V69.1766H824.341V67.5184Z" fill="#FF8400"/>
<path d="M824.341 82.8724H820.531V79.0664H818.862V82.8724H815.062V84.5306H818.862V88.3366H820.531V84.5306H824.341V82.8724Z" fill="#FF8400"/>
<path d="M824.341 98.2359H820.531V94.4299H818.862V98.2359H815.062V99.8942H818.862V103.7H820.531V99.8942H824.341V98.2359Z" fill="#FF8400"/>
<path d="M841.088 114.559H837.288V110.753H835.619V114.559H831.819V116.217H835.619V120.023H837.288V116.217H841.088V114.559Z" fill="#FF8400"/>
<path d="M841.088 130.053H837.288V126.247H835.619V130.053H831.819V131.721H835.619V135.517H837.288V131.721H841.088V130.053Z" fill="#FF8400"/>
<path d="M841.088 51.1859H837.288V47.3899H835.619V51.1859H831.819V52.8541H835.619V56.6601H837.288V52.8541H841.088V51.1859Z" fill="#FF8400"/>
<path d="M841.088 67.5184H837.288V63.7124H835.619V67.5184H831.819V69.1766H835.619V72.9826H837.288V69.1766H841.088V67.5184Z" fill="#FF8400"/>
<path d="M841.088 82.8724H837.288V79.0664H835.619V82.8724H831.819V84.5306H835.619V88.3366H837.288V84.5306H841.088V82.8724Z" fill="#FF8400"/>
<path d="M841.088 98.2359H837.288V94.4299H835.619V98.2359H831.819V99.8942H835.619V103.7H837.288V99.8942H841.088V98.2359Z" fill="#FF8400"/>
<path d="M890.528 114.559H886.719V110.753H885.059V114.559H881.25V116.217H885.059V120.023H886.719V116.217H890.528V114.559Z" fill="#FF8400"/>
<path d="M890.528 51.1859H886.719V47.3899H885.059V51.1859H881.25V52.8541H885.059V56.6601H886.719V52.8541H890.528V51.1859Z" fill="#FF8400"/>
<path d="M890.528 67.5184H886.719V63.7124H885.059V67.5184H881.25V69.1766H885.059V72.9826H886.719V69.1766H890.528V67.5184Z" fill="#FF8400"/>
<path d="M890.528 82.8724H886.719V79.0664H885.059V82.8724H881.25V84.5306H885.059V88.3366H886.719V84.5306H890.528V82.8724Z" fill="#FF8400"/>
<path d="M923.031 51.1859H919.222V47.3899H917.562V51.1859H913.753V52.8541H917.562V56.6601H919.222V52.8541H923.031V51.1859Z" fill="#FF8400"/>
<path d="M923.031 67.5184H919.222V63.7124H917.562V67.5184H913.753V69.1766H917.562V72.9826H919.222V69.1766H923.031V67.5184Z" fill="#FF8400"/>
<path d="M923.031 82.8724H919.222V79.0664H917.562V82.8724H913.753V84.5306H917.562V88.3366H919.222V84.5306H923.031V82.8724Z" fill="#FF8400"/>
<path d="M890.528 98.2359H886.719V94.4299H885.059V98.2359H881.25V99.8942H885.059V103.7H886.719V99.8942H890.528V98.2359Z" fill="#FF8400"/>
<path d="M808.274 130.472H804.465V126.666H802.805V130.472H798.996V132.13H802.805V135.936H804.465V132.13H808.274V130.472Z" fill="#FF8400"/>
<path d="M808.274 145.826H804.465V142.02H802.805V145.826H798.996V147.494H802.805V151.29H804.465V147.494H808.274V145.826Z" fill="#FF8400"/>
<path d="M808.274 51.1859H804.465V47.3899H802.805V51.1859H798.996V52.8541H802.805V56.6601H804.465V52.8541H808.274V51.1859Z" fill="#FF8400"/>
<path d="M808.274 67.0989H804.465V63.293H802.805V67.0989H798.996V68.7672H802.805V72.5632H804.465V68.7672H808.274V67.0989Z" fill="#FF8400"/>
<path d="M808.274 83.4317H804.465V79.6257H802.805V83.4317H798.996V85.09H802.805V88.8959H804.465V85.09H808.274V83.4317Z" fill="#FF8400"/>
<path d="M808.274 98.7857H804.465V94.9797H802.805V98.7857H798.996V100.444H802.805V104.25H804.465V100.444H808.274V98.7857Z" fill="#FF8400"/>
<path d="M808.274 35.4522H804.465V31.6462H802.805V35.4522H798.996V37.1105H802.805V40.9164H804.465V37.1105H808.274V35.4522Z" fill="#FF8400"/>
<path d="M808.274 19.7088H804.465V15.9128H802.805V19.7088H798.996V21.3771H802.805V25.183H804.465V21.3771H808.274V19.7088Z" fill="#FF8400"/>
<path d="M808.274 114.139H804.465V110.343H802.805V114.139H798.996V115.807H802.805V119.613H804.465V115.807H808.274V114.139Z" fill="#FF8400"/>
<path d="M857.574 51.1859H853.765V47.3899H852.105V51.1859H848.296V52.8541H852.105V56.6601H853.765V52.8541H857.574V51.1859Z" fill="#FF8400"/>
<path d="M857.574 67.0989H853.765V63.293H852.105V67.0989H848.296V68.7672H852.105V72.5632H853.765V68.7672H857.574V67.0989Z" fill="#FF8400"/>
<path d="M857.574 83.4317H853.765V79.6257H852.105V83.4317H848.296V85.09H852.105V88.8959H853.765V85.09H857.574V83.4317Z" fill="#FF8400"/>
<path d="M857.574 98.7857H853.765V94.9797H852.105V98.7857H848.296V100.444H852.105V104.25H853.765V100.444H857.574V98.7857Z" fill="#FF8400"/>
<path d="M857.574 35.4522H853.765V31.6462H852.105V35.4522H848.296V37.1105H852.105V40.9164H853.765V37.1105H857.574V35.4522Z" fill="#FF8400"/>
<path d="M857.574 19.7088H853.765V15.9128H852.105V19.7088H848.296V21.3771H852.105V25.183H853.765V21.3771H857.574V19.7088Z" fill="#FF8400"/>
<path d="M873.911 51.1859H870.102V47.3899H868.442V51.1859H864.633V52.8541H868.442V56.6601H870.102V52.8541H873.911V51.1859Z" fill="#FF8400"/>
<path d="M873.911 67.0989H870.102V63.293H868.442V67.0989H864.633V68.7672H868.442V72.5632H870.102V68.7672H873.911V67.0989Z" fill="#FF8400"/>
<path d="M873.911 35.4522H870.102V31.6462H868.442V35.4522H864.633V37.1105H868.442V40.9164H870.102V37.1105H873.911V35.4522Z" fill="#FF8400"/>
<path d="M873.911 19.7088H870.102V15.9128H868.442V19.7088H864.633V21.3771H868.442V25.183H870.102V21.3771H873.911V19.7088Z" fill="#FF8400"/>
<path d="M857.574 114.139H853.765V110.343H852.105V114.139H848.296V115.807H852.105V119.613H853.765V115.807H857.574V114.139Z" fill="#FF8400"/>
<path d="M713.132 161.19H709.333V157.384H707.664V161.19H703.864V162.848H707.664V166.654H709.333V162.848H713.132V161.19Z" fill="#FF8400"/>
<path d="M777.11 82.3231H773.311V78.5171H771.641V82.3231H767.842V83.9813H771.641V87.7873H773.311V83.9813H777.11V82.3231Z" fill="#FF8400"/>
<path d="M777.11 98.2359H773.311V94.4299H771.641V98.2359H767.842V99.8942H771.641V103.7H773.311V99.8942H777.11V98.2359Z" fill="#FF8400"/>
<path d="M777.11 114.559H773.311V110.753H771.641V114.559H767.842V116.217H771.641V120.023H773.311V116.217H777.11V114.559Z" fill="#FF8400"/>
<path d="M777.11 129.923H773.311V126.117H771.641V129.923H767.842V131.581H771.641V135.387H773.311V131.581H777.11V129.923Z" fill="#FF8400"/>
<path d="M777.11 145.277H773.311V141.471H771.641V145.277H767.842V146.935H771.641V150.741H773.311V146.935H777.11V145.277Z" fill="#FF8400"/>
<path d="M777.11 161.19H773.311V157.384H771.641V161.19H767.842V162.848H771.641V166.654H773.311V162.848H777.11V161.19Z" fill="#FF8400"/>
<path d="M955.895 82.3231H952.086V78.5171H950.426V82.3231H946.617V83.9813H950.426V87.7873H952.086V83.9813H955.895V82.3231Z" fill="#FF8400"/>
<path d="M955.895 66.4097H952.086V62.6038H950.426V66.4097H946.617V68.068H950.426V71.874H952.086V68.068H955.895V66.4097Z" fill="#FF8400"/>
<path d="M955.895 98.2359H952.086V94.4299H950.426V98.2359H946.617V99.8942H950.426V103.7H952.086V99.8942H955.895V98.2359Z" fill="#FF8400"/>
<path d="M955.895 114.559H952.086V110.753H950.426V114.559H946.617V116.217H950.426V120.023H952.086V116.217H955.895V114.559Z" fill="#FF8400"/>
<path d="M955.895 129.923H952.086V126.117H950.426V129.923H946.617V131.581H950.426V135.387H952.086V131.581H955.895V129.923Z" fill="#FF8400"/>
<path d="M955.895 145.277H952.086V141.471H950.426V145.277H946.617V146.935H950.426V150.741H952.086V146.935H955.895V145.277Z" fill="#FF8400"/>
<path d="M955.895 161.19H952.086V157.384H950.426V161.19H946.617V162.848H950.426V166.654H952.086V162.848H955.895V161.19Z" fill="#FF8400"/>
<path d="M972.092 35.2825H968.282V31.4766H966.623V35.2825H962.813V36.9408H966.623V40.7468H968.282V36.9408H972.092V35.2825Z" fill="#FF8400"/>
<path d="M972.092 51.1859H968.282V47.3899H966.623V51.1859H962.813V52.8541H966.623V56.6601H968.282V52.8541H972.092V51.1859Z" fill="#FF8400"/>
<path d="M972.092 19.5394H968.282V15.7334H966.623V19.5394H962.813V21.1976H966.623V25.0036H968.282V21.1976H972.092V19.5394Z" fill="#FF8400"/>
<path d="M972.092 82.3231H968.282V78.5171H966.623V82.3231H962.813V83.9813H966.623V87.7873H968.282V83.9813H972.092V82.3231Z" fill="#FF8400"/>
<path d="M972.092 66.4097H968.282V62.6038H966.623V66.4097H962.813V68.068H966.623V71.874H968.282V68.068H972.092V66.4097Z" fill="#FF8400"/>
<path d="M972.092 98.2359H968.282V94.4299H966.623V98.2359H962.813V99.8942H966.623V103.7H968.282V99.8942H972.092V98.2359Z" fill="#FF8400"/>
<path d="M1036.49 51.1859H1032.68V47.3899H1031.02V51.1859H1027.21V52.8541H1031.02V56.6601H1032.68V52.8541H1036.49V51.1859Z" fill="#FF8400"/>
<path d="M1036.49 82.3231H1032.68V78.5171H1031.02V82.3231H1027.21V83.9813H1031.02V87.7873H1032.68V83.9813H1036.49V82.3231Z" fill="#FF8400"/>
<path d="M1036.49 66.4097H1032.68V62.6038H1031.02V66.4097H1027.21V68.068H1031.02V71.874H1032.68V68.068H1036.49V66.4097Z" fill="#FF8400"/>
<path d="M1036.49 98.2359H1032.68V94.4299H1031.02V98.2359H1027.21V99.8942H1031.02V103.7H1032.68V99.8942H1036.49V98.2359Z" fill="#FF8400"/>
<path d="M972.092 114.559H968.282V110.753H966.623V114.559H962.813V116.217H966.623V120.023H968.282V116.217H972.092V114.559Z" fill="#FF8400"/>
<path d="M972.092 129.923H968.282V126.117H966.623V129.923H962.813V131.581H966.623V135.387H968.282V131.581H972.092V129.923Z" fill="#FF8400"/>
<path d="M1020.07 35.2825H1016.27V31.4766H1014.6V35.2825H1010.79V36.9408H1014.6V40.7468H1016.27V36.9408H1020.07V35.2825Z" fill="#FF8400"/>
<path d="M1020.07 51.1859H1016.27V47.3899H1014.6V51.1859H1010.79V52.8541H1014.6V56.6601H1016.27V52.8541H1020.07V51.1859Z" fill="#FF8400"/>
<path d="M1020.07 82.3231H1016.27V78.5171H1014.6V82.3231H1010.79V83.9813H1014.6V87.7873H1016.27V83.9813H1020.07V82.3231Z" fill="#FF8400"/>
<path d="M1020.07 66.4097H1016.27V62.6038H1014.6V66.4097H1010.79V68.068H1014.6V71.874H1016.27V68.068H1020.07V66.4097Z" fill="#FF8400"/>
<path d="M1020.07 98.2359H1016.27V94.4299H1014.6V98.2359H1010.79V99.8942H1014.6V103.7H1016.27V99.8942H1020.07V98.2359Z" fill="#FF8400"/>
<path d="M1020.07 114.559H1016.27V110.753H1014.6V114.559H1010.79V116.217H1014.6V120.023H1016.27V116.217H1020.07V114.559Z" fill="#FF8400"/>
<path d="M1020.07 129.923H1016.27V126.117H1014.6V129.923H1010.79V131.581H1014.6V135.387H1016.27V131.581H1020.07V129.923Z" fill="#FF8400"/>
<path d="M1118.74 82.3929H1114.93V78.5869H1113.27V82.3929H1109.46V84.0511H1113.27V87.8571H1114.93V84.0511H1118.74V82.3929Z" fill="#FF8400"/>
<path d="M1118.74 98.3062H1114.93V94.5002H1113.27V98.3062H1109.46V99.9645H1113.27V103.77H1114.93V99.9645H1118.74V98.3062Z" fill="#FF8400"/>
<path d="M1118.74 129.433H1114.93V125.627H1113.27V129.433H1109.46V131.091H1113.27V134.897H1114.93V131.091H1118.74V129.433Z" fill="#FF8400"/>
<path d="M1118.74 113.52H1114.93V109.714H1113.27V113.52H1109.46V115.178H1113.27V118.984H1114.93V115.178H1118.74V113.52Z" fill="#FF8400"/>
<path d="M1118.74 145.346H1114.93V141.54H1113.27V145.346H1109.46V147.005H1113.27V150.811H1114.93V147.005H1118.74V145.346Z" fill="#FF8400"/>
<path d="M1118.74 161.669H1114.93V157.863H1113.27V161.669H1109.46V163.327H1113.27V167.133H1114.93V163.327H1118.74V161.669Z" fill="#FF8400"/>
<path d="M1118.74 177.033H1114.93V173.227H1113.27V177.033H1109.46V178.691H1113.27V182.497H1114.93V178.691H1118.74V177.033Z" fill="#FF8400"/>
<path d="M1151.36 82.3929H1147.55V78.5869H1145.89V82.3929H1142.08V84.0511H1145.89V87.8571H1147.55V84.0511H1151.36V82.3929Z" fill="#FF8400"/>
<path d="M1151.36 192.387H1147.55V188.581H1145.89V192.387H1142.08V194.045H1145.89V197.851H1147.55V194.045H1151.36V192.387Z" fill="#FF8400"/>
<path d="M1151.36 98.3062H1147.55V94.5002H1145.89V98.3062H1142.08V99.9645H1145.89V103.77H1147.55V99.9645H1151.36V98.3062Z" fill="#FF8400"/>
<path d="M1151.36 129.433H1147.55V125.627H1145.89V129.433H1142.08V131.091H1145.89V134.897H1147.55V131.091H1151.36V129.433Z" fill="#FF8400"/>
<path d="M1151.36 113.52H1147.55V109.714H1145.89V113.52H1142.08V115.178H1145.89V118.984H1147.55V115.178H1151.36V113.52Z" fill="#FF8400"/>
<path d="M1151.36 145.346H1147.55V141.54H1145.89V145.346H1142.08V147.005H1145.89V150.811H1147.55V147.005H1151.36V145.346Z" fill="#FF8400"/>
<path d="M1151.36 161.669H1147.55V157.863H1145.89V161.669H1142.08V163.327H1145.89V167.133H1147.55V163.327H1151.36V161.669Z" fill="#FF8400"/>
<path d="M1151.36 177.033H1147.55V173.227H1145.89V177.033H1142.08V178.691H1145.89V182.497H1147.55V178.691H1151.36V177.033Z" fill="#FF8400"/>
<path d="M1184.38 82.3929H1180.57V78.5869H1178.91V82.3929H1175.1V84.0511H1178.91V87.8571H1180.57V84.0511H1184.38V82.3929Z" fill="#FF8400"/>
<path d="M1184.38 192.387H1180.57V188.581H1178.91V192.387H1175.1V194.045H1178.91V197.851H1180.57V194.045H1184.38V192.387Z" fill="#FF8400"/>
<path d="M1184.38 98.3062H1180.57V94.5002H1178.91V98.3062H1175.1V99.9645H1178.91V103.77H1180.57V99.9645H1184.38V98.3062Z" fill="#FF8400"/>
<path d="M1184.38 129.433H1180.57V125.627H1178.91V129.433H1175.1V131.091H1178.91V134.897H1180.57V131.091H1184.38V129.433Z" fill="#FF8400"/>
<path d="M1184.38 113.52H1180.57V109.714H1178.91V113.52H1175.1V115.178H1178.91V118.984H1180.57V115.178H1184.38V113.52Z" fill="#FF8400"/>
<path d="M1201.1 98.3062H1197.29V94.5002H1195.63V98.3062H1191.82V99.9645H1195.63V103.77H1197.29V99.9645H1201.1V98.3062Z" fill="#FF8400"/>
<path d="M1201.1 129.433H1197.29V125.627H1195.63V129.433H1191.82V131.091H1195.63V134.897H1197.29V131.091H1201.1V129.433Z" fill="#FF8400"/>
<path d="M1201.1 113.52H1197.29V109.714H1195.63V113.52H1191.82V115.178H1195.63V118.984H1197.29V115.178H1201.1V113.52Z" fill="#FF8400"/>
<path d="M1184.38 145.346H1180.57V141.54H1178.91V145.346H1175.1V147.005H1178.91V150.811H1180.57V147.005H1184.38V145.346Z" fill="#FF8400"/>
<path d="M1184.38 161.669H1180.57V157.863H1178.91V161.669H1175.1V163.327H1178.91V167.133H1180.57V163.327H1184.38V161.669Z" fill="#FF8400"/>
<path d="M1233.29 98.3062H1229.48V94.5002H1227.82V98.3062H1224.01V99.9645H1227.82V103.77H1229.48V99.9645H1233.29V98.3062Z" fill="#FF8400"/>
<path d="M1233.29 129.433H1229.48V125.627H1227.82V129.433H1224.01V131.091H1227.82V134.897H1229.48V131.091H1233.29V129.433Z" fill="#FF8400"/>
<path d="M1233.29 113.52H1229.48V109.714H1227.82V113.52H1224.01V115.178H1227.82V118.984H1229.48V115.178H1233.29V113.52Z" fill="#FF8400"/>
<path d="M1233.29 145.346H1229.48V141.54H1227.82V145.346H1224.01V147.005H1227.82V150.811H1229.48V147.005H1233.29V145.346Z" fill="#FF8400"/>
<path d="M1233.29 161.669H1229.48V157.863H1227.82V161.669H1224.01V163.327H1227.82V167.133H1229.48V163.327H1233.29V161.669Z" fill="#FF8400"/>
<path d="M1184.38 177.033H1180.57V173.227H1178.91V177.033H1175.1V178.691H1178.91V182.497H1180.57V178.691H1184.38V177.033Z" fill="#FF8400"/>
<path d="M1168.69 192.387H1164.88V188.581H1163.23V192.387H1159.42V194.045H1163.23V197.851H1164.88V194.045H1168.69V192.387Z" fill="#FF8400"/>
<path d="M1168.69 208.369H1164.88V204.563H1163.23V208.369H1159.42V210.028H1163.23V213.834H1164.88V210.028H1168.69V208.369Z" fill="#FF8400"/>
<path d="M1168.69 129.433H1164.88V125.627H1163.23V129.433H1159.42V131.091H1163.23V134.897H1164.88V131.091H1168.69V129.433Z" fill="#FF8400"/>
<path d="M1168.69 145.346H1164.88V141.54H1163.23V145.346H1159.42V147.005H1163.23V150.811H1164.88V147.005H1168.69V145.346Z" fill="#FF8400"/>
<path d="M1168.69 161.669H1164.88V157.863H1163.23V161.669H1159.42V163.327H1163.23V167.133H1164.88V163.327H1168.69V161.669Z" fill="#FF8400"/>
<path d="M1168.69 177.033H1164.88V173.227H1163.23V177.033H1159.42V178.691H1163.23V182.497H1164.88V178.691H1168.69V177.033Z" fill="#FF8400"/>
<path d="M1414.84 113.52H1411.03V109.714H1409.37V113.52H1405.56V115.178H1409.37V118.984H1411.03V115.178H1414.84V113.52Z" fill="#FF8400"/>
<path d="M1414.84 192.387H1411.03V188.581H1409.37V192.387H1405.56V194.045H1409.37V197.851H1411.03V194.045H1414.84V192.387Z" fill="#FF8400"/>
<path d="M1414.84 208.369H1411.03V204.563H1409.37V208.369H1405.56V210.028H1409.37V213.834H1411.03V210.028H1414.84V208.369Z" fill="#FF8400"/>
<path d="M1414.84 129.433H1411.03V125.627H1409.37V129.433H1405.56V131.091H1409.37V134.897H1411.03V131.091H1414.84V129.433Z" fill="#FF8400"/>
<path d="M1414.84 145.346H1411.03V141.54H1409.37V145.346H1405.56V147.005H1409.37V150.811H1411.03V147.005H1414.84V145.346Z" fill="#FF8400"/>
<path d="M1414.84 161.669H1411.03V157.863H1409.37V161.669H1405.56V163.327H1409.37V167.133H1411.03V163.327H1414.84V161.669Z" fill="#FF8400"/>
<path d="M1414.84 177.772H1411.03V173.966H1409.37V177.772H1405.56V179.43H1409.37V183.236H1411.03V179.43H1414.84V177.772Z" fill="#FF8400"/>
<path d="M1069.1 51.1859H1065.29V47.3899H1063.62V51.1859H1059.83V52.8541H1063.62V56.6601H1065.29V52.8541H1069.1V51.1859Z" fill="#FF8400"/>
<path d="M1069.1 82.3231H1065.29V78.5171H1063.62V82.3231H1059.83V83.9813H1063.62V87.7873H1065.29V83.9813H1069.1V82.3231Z" fill="#FF8400"/>
<path d="M1069.1 66.4097H1065.29V62.6038H1063.62V66.4097H1059.83V68.068H1063.62V71.874H1065.29V68.068H1069.1V66.4097Z" fill="#FF8400"/>
<path d="M1069.1 98.2359H1065.29V94.4299H1063.62V98.2359H1059.83V99.8942H1063.62V103.7H1065.29V99.8942H1069.1V98.2359Z" fill="#FF8400"/>
<path d="M1069.1 114.559H1065.29V110.753H1063.62V114.559H1059.83V116.217H1063.62V120.023H1065.29V116.217H1069.1V114.559Z" fill="#FF8400"/>
<path d="M1069.1 129.923H1065.29V126.117H1063.62V129.923H1059.83V131.581H1063.62V135.387H1065.29V131.581H1069.1V129.923Z" fill="#FF8400"/>
<path d="M1102.54 51.1859H1098.73V47.3899H1097.07V51.1859H1093.26V52.8541H1097.07V56.6601H1098.73V52.8541H1102.54V51.1859Z" fill="#FF8400"/>
<path d="M1102.54 82.3231H1098.73V78.5171H1097.07V82.3231H1093.26V83.9813H1097.07V87.7873H1098.73V83.9813H1102.54V82.3231Z" fill="#FF8400"/>
<path d="M1102.54 66.4097H1098.73V62.6038H1097.07V66.4097H1093.26V68.068H1097.07V71.874H1098.73V68.068H1102.54V66.4097Z" fill="#FF8400"/>
<path d="M1134.94 82.3929H1131.14V78.5869H1129.47V82.3929H1125.66V84.0511H1129.47V87.8571H1131.14V84.0511H1134.94V82.3929Z" fill="#FF8400"/>
<path d="M1134.94 98.3062H1131.14V94.5002H1129.47V98.3062H1125.66V99.9645H1129.47V103.77H1131.14V99.9645H1134.94V98.3062Z" fill="#FF8400"/>
<path d="M1134.94 129.433H1131.14V125.627H1129.47V129.433H1125.66V131.091H1129.47V134.897H1131.14V131.091H1134.94V129.433Z" fill="#FF8400"/>
<path d="M1134.94 113.52H1131.14V109.714H1129.47V113.52H1125.66V115.178H1129.47V118.984H1131.14V115.178H1134.94V113.52Z" fill="#FF8400"/>
<path d="M1134.94 145.346H1131.14V141.54H1129.47V145.346H1125.66V147.005H1129.47V150.811H1131.14V147.005H1134.94V145.346Z" fill="#FF8400"/>
<path d="M1134.94 66.4097H1131.14V62.6038H1129.47V66.4097H1125.66V68.068H1129.47V71.874H1131.14V68.068H1134.94V66.4097Z" fill="#FF8400"/>
<path d="M1250.44 161.669H1246.63V157.863H1244.97V161.669H1241.16V163.327H1244.97V167.133H1246.63V163.327H1250.44V161.669Z" fill="#FF8400"/>
<path d="M1250.44 177.033H1246.63V173.227H1244.97V177.033H1241.16V178.691H1244.97V182.497H1246.63V178.691H1250.44V177.033Z" fill="#FF8400"/>
<path d="M1250.44 82.3929H1246.63V78.5869H1244.97V82.3929H1241.16V84.0511H1244.97V87.8571H1246.63V84.0511H1250.44V82.3929Z" fill="#FF8400"/>
<path d="M1250.44 98.3062H1246.63V94.5002H1244.97V98.3062H1241.16V99.9645H1244.97V103.77H1246.63V99.9645H1250.44V98.3062Z" fill="#FF8400"/>
<path d="M1250.44 129.433H1246.63V125.627H1244.97V129.433H1241.16V131.091H1244.97V134.897H1246.63V131.091H1250.44V129.433Z" fill="#FF8400"/>
<path d="M1250.44 113.52H1246.63V109.714H1244.97V113.52H1241.16V115.178H1244.97V118.984H1246.63V115.178H1250.44V113.52Z" fill="#FF8400"/>
<path d="M1250.44 145.346H1246.63V141.54H1244.97V145.346H1241.16V147.005H1244.97V150.811H1246.63V147.005H1250.44V145.346Z" fill="#FF8400"/>
<path d="M1250.44 66.4097H1246.63V62.6038H1244.97V66.4097H1241.16V68.068H1244.97V71.874H1246.63V68.068H1250.44V66.4097Z" fill="#FF8400"/>
<path d="M1397.92 161.669H1394.11V157.863H1392.45V161.669H1388.64V163.327H1392.45V167.133H1394.11V163.327H1397.92V161.669Z" fill="#FF8400"/>
<path d="M1431 161.669H1427.19V157.863H1425.53V161.669H1421.73V163.327H1425.53V167.133H1427.19V163.327H1431V161.669Z" fill="#FF8400"/>
<path d="M1397.92 82.3929H1394.11V78.5869H1392.45V82.3929H1388.64V84.0511H1392.45V87.8571H1394.11V84.0511H1397.92V82.3929Z" fill="#FF8400"/>
<path d="M1431 82.3929H1427.19V78.5869H1425.53V82.3929H1421.73V84.0511H1425.53V87.8571H1427.19V84.0511H1431V82.3929Z" fill="#FF8400"/>
<path d="M1397.92 98.3062H1394.11V94.5002H1392.45V98.3062H1388.64V99.9645H1392.45V103.77H1394.11V99.9645H1397.92V98.3062Z" fill="#FF8400"/>
<path d="M1431 98.3062H1427.19V94.5002H1425.53V98.3062H1421.73V99.9645H1425.53V103.77H1427.19V99.9645H1431V98.3062Z" fill="#FF8400"/>
<path d="M1397.92 129.433H1394.11V125.627H1392.45V129.433H1388.64V131.091H1392.45V134.897H1394.11V131.091H1397.92V129.433Z" fill="#FF8400"/>
<path d="M1431 129.433H1427.19V125.627H1425.53V129.433H1421.73V131.091H1425.53V134.897H1427.19V131.091H1431V129.433Z" fill="#FF8400"/>
<path d="M1397.92 113.52H1394.11V109.714H1392.45V113.52H1388.64V115.178H1392.45V118.984H1394.11V115.178H1397.92V113.52Z" fill="#FF8400"/>
<path d="M1431 113.52H1427.19V109.714H1425.53V113.52H1421.73V115.178H1425.53V118.984H1427.19V115.178H1431V113.52Z" fill="#FF8400"/>
<path d="M1397.92 145.346H1394.11V141.54H1392.45V145.346H1388.64V147.005H1392.45V150.811H1394.11V147.005H1397.92V145.346Z" fill="#FF8400"/>
<path d="M1431 145.346H1427.19V141.54H1425.53V145.346H1421.73V147.005H1425.53V150.811H1427.19V147.005H1431V145.346Z" fill="#FF8400"/>
<path d="M1448 177.972H1444.19V174.166H1442.53V177.972H1438.72V179.63H1442.53V183.436H1444.19V179.63H1448V177.972Z" fill="#FF8400"/>
<path d="M1448 145.736H1444.19V141.93H1442.53V145.736H1438.72V147.394H1442.53V151.2H1444.19V147.394H1448V145.736Z" fill="#FF8400"/>
<path d="M1448 129.823H1444.19V126.017H1442.53V129.823H1438.72V131.481H1442.53V135.287H1444.19V131.481H1448V129.823Z" fill="#FF8400"/>
<path d="M1448 161.649H1444.19V157.843H1442.53V161.649H1438.72V163.307H1442.53V167.113H1444.19V163.307H1448V161.649Z" fill="#FF8400"/>
<path d="M1397.92 66.4097H1394.11V62.6038H1392.45V66.4097H1388.64V68.068H1392.45V71.874H1394.11V68.068H1397.92V66.4097Z" fill="#FF8400"/>
<path d="M1431 66.4097H1427.19V62.6038H1425.53V66.4097H1421.73V68.068H1425.53V71.874H1427.19V68.068H1431V66.4097Z" fill="#FF8400"/>
<path d="M1332.07 82.3929H1328.26V78.5869H1326.6V82.3929H1322.79V84.0511H1326.6V87.8571H1328.26V84.0511H1332.07V82.3929Z" fill="#FF8400"/>
<path d="M1332.07 98.3062H1328.26V94.5002H1326.6V98.3062H1322.79V99.9645H1326.6V103.77H1328.26V99.9645H1332.07V98.3062Z" fill="#FF8400"/>
<path d="M1332.07 113.52H1328.26V109.714H1326.6V113.52H1322.79V115.178H1326.6V118.984H1328.26V115.178H1332.07V113.52Z" fill="#FF8400"/>
<path d="M1332.07 66.4097H1328.26V62.6038H1326.6V66.4097H1322.79V68.068H1326.6V71.874H1328.26V68.068H1332.07V66.4097Z" fill="#FF8400"/>
<path d="M1266.85 177.233H1263.04V173.437H1261.38V177.233H1257.57V178.901H1261.38V182.707H1263.04V178.901H1266.85V177.233Z" fill="#FF8400"/>
<path d="M1266.85 192.596H1263.04V188.79H1261.38V192.596H1257.57V194.254H1261.38V198.06H1263.04V194.254H1266.85V192.596Z" fill="#FF8400"/>
<path d="M1266.85 97.9564H1263.04V94.1504H1261.38V97.9564H1257.57V99.6146H1261.38V103.421H1263.04V99.6146H1266.85V97.9564Z" fill="#FF8400"/>
<path d="M1266.85 113.869H1263.04V110.063H1261.38V113.869H1257.57V115.528H1261.38V119.334H1263.04V115.528H1266.85V113.869Z" fill="#FF8400"/>
<path d="M1266.85 144.997H1263.04V141.191H1261.38V144.997H1257.57V146.655H1261.38V150.461H1263.04V146.655H1266.85V144.997Z" fill="#FF8400"/>
<path d="M1266.85 129.083H1263.04V125.277H1261.38V129.083H1257.57V130.752H1261.38V134.548H1263.04V130.752H1266.85V129.083Z" fill="#FF8400"/>
<path d="M1266.85 160.91H1263.04V157.104H1261.38V160.91H1257.57V162.568H1261.38V166.374H1263.04V162.568H1266.85V160.91Z" fill="#FF8400"/>
<path d="M1299.88 177.233H1296.07V173.437H1294.4V177.233H1290.6V178.901H1294.4V182.707H1296.07V178.901H1299.88V177.233Z" fill="#FF8400"/>
<path d="M1299.88 97.9564H1296.07V94.1504H1294.4V97.9564H1290.6V99.6146H1294.4V103.421H1296.07V99.6146H1299.88V97.9564Z" fill="#FF8400"/>
<path d="M1299.88 113.869H1296.07V110.063H1294.4V113.869H1290.6V115.528H1294.4V119.334H1296.07V115.528H1299.88V113.869Z" fill="#FF8400"/>
<path d="M1299.88 144.997H1296.07V141.191H1294.4V144.997H1290.6V146.655H1294.4V150.461H1296.07V146.655H1299.88V144.997Z" fill="#FF8400"/>
<path d="M1299.88 129.083H1296.07V125.277H1294.4V129.083H1290.6V130.752H1294.4V134.548H1296.07V130.752H1299.88V129.083Z" fill="#FF8400"/>
<path d="M1299.88 160.91H1296.07V157.104H1294.4V160.91H1290.6V162.568H1294.4V166.374H1296.07V162.568H1299.88V160.91Z" fill="#FF8400"/>
<path d="M1282.63 97.9564H1278.82V94.1504H1277.16V97.9564H1273.35V99.6146H1277.16V103.421H1278.82V99.6146H1282.63V97.9564Z" fill="#FF8400"/>
<path d="M1282.63 113.869H1278.82V110.063H1277.16V113.869H1273.35V115.528H1277.16V119.334H1278.82V115.528H1282.63V113.869Z" fill="#FF8400"/>
<path d="M1282.63 144.997H1278.82V141.191H1277.16V144.997H1273.35V146.655H1277.16V150.461H1278.82V146.655H1282.63V144.997Z" fill="#FF8400"/>
<path d="M1282.63 129.083H1278.82V125.277H1277.16V129.083H1273.35V130.752H1277.16V134.548H1278.82V130.752H1282.63V129.083Z" fill="#FF8400"/>
<path d="M1282.63 160.91H1278.82V157.104H1277.16V160.91H1273.35V162.568H1277.16V166.374H1278.82V162.568H1282.63V160.91Z" fill="#FF8400"/>
<path d="M1266.85 81.9735H1263.04V78.1675H1261.38V81.9735H1257.57V83.6317H1261.38V87.4377H1263.04V83.6317H1266.85V81.9735Z" fill="#FF8400"/>
<path d="M1364.89 177.233H1361.09V173.437H1359.42V177.233H1355.62V178.901H1359.42V182.707H1361.09V178.901H1364.89V177.233Z" fill="#FF8400"/>
<path d="M1364.89 97.9564H1361.09V94.1504H1359.42V97.9564H1355.62V99.6146H1359.42V103.421H1361.09V99.6146H1364.89V97.9564Z" fill="#FF8400"/>
<path d="M1364.89 113.869H1361.09V110.063H1359.42V113.869H1355.62V115.528H1359.42V119.334H1361.09V115.528H1364.89V113.869Z" fill="#FF8400"/>
<path d="M1364.89 144.997H1361.09V141.191H1359.42V144.997H1355.62V146.655H1359.42V150.461H1361.09V146.655H1364.89V144.997Z" fill="#FF8400"/>
<path d="M1364.89 129.083H1361.09V125.277H1359.42V129.083H1355.62V130.752H1359.42V134.548H1361.09V130.752H1364.89V129.083Z" fill="#FF8400"/>
<path d="M1364.89 160.91H1361.09V157.104H1359.42V160.91H1355.62V162.568H1359.42V166.374H1361.09V162.568H1364.89V160.91Z" fill="#FF8400"/>
<path d="M1364.89 81.9735H1361.09V78.1675H1359.42V81.9735H1355.62V83.6317H1359.42V87.4377H1361.09V83.6317H1364.89V81.9735Z" fill="#FF8400"/>
<path d="M1316.07 97.9564H1312.27V94.1504H1310.61V97.9564H1306.8V99.6146H1310.61V103.421H1312.27V99.6146H1316.07V97.9564Z" fill="#FF8400"/>
<path d="M1316.07 113.869H1312.27V110.063H1310.61V113.869H1306.8V115.528H1310.61V119.334H1312.27V115.528H1316.07V113.869Z" fill="#FF8400"/>
<path d="M1316.07 144.997H1312.27V141.191H1310.61V144.997H1306.8V146.655H1310.61V150.461H1312.27V146.655H1316.07V144.997Z" fill="#FF8400"/>
<path d="M1316.07 129.083H1312.27V125.277H1310.61V129.083H1306.8V130.752H1310.61V134.548H1312.27V130.752H1316.07V129.083Z" fill="#FF8400"/>
<path d="M1316.07 160.91H1312.27V157.104H1310.61V160.91H1306.8V162.568H1310.61V166.374H1312.27V162.568H1316.07V160.91Z" fill="#FF8400"/>
<path d="M1348.69 97.9564H1344.88V94.1504H1343.22V97.9564H1339.41V99.6146H1343.22V103.421H1344.88V99.6146H1348.69V97.9564Z" fill="#FF8400"/>
<path d="M1348.69 113.869H1344.88V110.063H1343.22V113.869H1339.41V115.528H1343.22V119.334H1344.88V115.528H1348.69V113.869Z" fill="#FF8400"/>
<path d="M1348.69 144.997H1344.88V141.191H1343.22V144.997H1339.41V146.655H1343.22V150.461H1344.88V146.655H1348.69V144.997Z" fill="#FF8400"/>
<path d="M1348.69 129.083H1344.88V125.277H1343.22V129.083H1339.41V130.752H1343.22V134.548H1344.88V130.752H1348.69V129.083Z" fill="#FF8400"/>
<path d="M1381.92 97.9564H1378.11V94.1504H1376.45V97.9564H1372.64V99.6146H1376.45V103.421H1378.11V99.6146H1381.92V97.9564Z" fill="#FF8400"/>
<path d="M1381.92 113.869H1378.11V110.063H1376.45V113.869H1372.64V115.528H1376.45V119.334H1378.11V115.528H1381.92V113.869Z" fill="#FF8400"/>
<path d="M1381.92 129.083H1378.11V125.277H1376.45V129.083H1372.64V130.752H1376.45V134.548H1378.11V130.752H1381.92V129.083Z" fill="#FF8400"/>
<path d="M1348.69 160.91H1344.88V157.104H1343.22V160.91H1339.41V162.568H1343.22V166.374H1344.88V162.568H1348.69V160.91Z" fill="#FF8400"/>
<path d="M1316.07 81.9735H1312.27V78.1675H1310.61V81.9735H1306.8V83.6317H1310.61V87.4377H1312.27V83.6317H1316.07V81.9735Z" fill="#FF8400"/>
<path d="M1217.83 82.3929H1214.02V78.5869H1212.36V82.3929H1208.55V84.0511H1212.36V87.8571H1214.02V84.0511H1217.83V82.3929Z" fill="#FF8400"/>
<path d="M1217.83 98.3062H1214.02V94.5002H1212.36V98.3062H1208.55V99.9645H1212.36V103.77H1214.02V99.9645H1217.83V98.3062Z" fill="#FF8400"/>
<path d="M1217.83 129.433H1214.02V125.627H1212.36V129.433H1208.55V131.091H1212.36V134.897H1214.02V131.091H1217.83V129.433Z" fill="#FF8400"/>
<path d="M1217.83 113.52H1214.02V109.714H1212.36V113.52H1208.55V115.178H1212.36V118.984H1214.02V115.178H1217.83V113.52Z" fill="#FF8400"/>
<path d="M1217.83 145.346H1214.02V141.54H1212.36V145.346H1208.55V147.005H1212.36V150.811H1214.02V147.005H1217.83V145.346Z" fill="#FF8400"/>
<path d="M1217.83 66.4097H1214.02V62.6038H1212.36V66.4097H1208.55V68.068H1212.36V71.874H1214.02V68.068H1217.83V66.4097Z" fill="#FF8400"/>
<path d="M1102.54 98.2359H1098.73V94.4299H1097.07V98.2359H1093.26V99.8942H1097.07V103.7H1098.73V99.8942H1102.54V98.2359Z" fill="#FF8400"/>
<path d="M1102.54 114.559H1098.73V110.753H1097.07V114.559H1093.26V116.217H1097.07V120.023H1098.73V116.217H1102.54V114.559Z" fill="#FF8400"/>
<path d="M1102.54 129.923H1098.73V126.117H1097.07V129.923H1093.26V131.581H1097.07V135.387H1098.73V131.581H1102.54V129.923Z" fill="#FF8400"/>
<path d="M988.709 82.3231H984.9V78.5171H983.24V82.3231H979.431V83.9813H983.24V87.7873H984.9V83.9813H988.709V82.3231Z" fill="#FF8400"/>
<path d="M988.709 66.4097H984.9V62.6038H983.24V66.4097H979.431V68.068H983.24V71.874H984.9V68.068H988.709V66.4097Z" fill="#FF8400"/>
<path d="M988.709 98.2359H984.9V94.4299H983.24V98.2359H979.431V99.8942H983.24V103.7H984.9V99.8942H988.709V98.2359Z" fill="#FF8400"/>
<path d="M988.709 114.559H984.9V110.753H983.24V114.559H979.431V116.217H983.24V120.023H984.9V116.217H988.709V114.559Z" fill="#FF8400"/>
<path d="M988.709 129.923H984.9V126.117H983.24V129.923H979.431V131.581H983.24V135.387H984.9V131.581H988.709V129.923Z" fill="#FF8400"/>
<path d="M972.092 145.277H968.282V141.471H966.623V145.277H962.813V146.935H966.623V150.741H968.282V146.935H972.092V145.277Z" fill="#FF8400"/>
<path d="M1053.31 35.2825H1049.51V31.4766H1047.84V35.2825H1044.04V36.9408H1047.84V40.7468H1049.51V36.9408H1053.31V35.2825Z" fill="#FF8400"/>
<path d="M1053.31 51.1859H1049.51V47.3899H1047.84V51.1859H1044.04V52.8541H1047.84V56.6601H1049.51V52.8541H1053.31V51.1859Z" fill="#FF8400"/>
<path d="M1053.31 82.3231H1049.51V78.5171H1047.84V82.3231H1044.04V83.9813H1047.84V87.7873H1049.51V83.9813H1053.31V82.3231Z" fill="#FF8400"/>
<path d="M1053.31 66.4097H1049.51V62.6038H1047.84V66.4097H1044.04V68.068H1047.84V71.874H1049.51V68.068H1053.31V66.4097Z" fill="#FF8400"/>
<path d="M1053.31 98.2359H1049.51V94.4299H1047.84V98.2359H1044.04V99.8942H1047.84V103.7H1049.51V99.8942H1053.31V98.2359Z" fill="#FF8400"/>
<path d="M1053.31 114.559H1049.51V110.753H1047.84V114.559H1044.04V116.217H1047.84V120.023H1049.51V116.217H1053.31V114.559Z" fill="#FF8400"/>
<path d="M1053.31 129.923H1049.51V126.117H1047.84V129.923H1044.04V131.581H1047.84V135.387H1049.51V131.581H1053.31V129.923Z" fill="#FF8400"/>
<path d="M1053.31 145.277H1049.51V141.471H1047.84V145.277H1044.04V146.935H1047.84V150.741H1049.51V146.935H1053.31V145.277Z" fill="#FF8400"/>
<path d="M1085.92 82.3231H1082.12V78.5171H1080.45V82.3231H1076.64V83.9813H1080.45V87.7873H1082.12V83.9813H1085.92V82.3231Z" fill="#FF8400"/>
<path d="M1085.92 66.4097H1082.12V62.6038H1080.45V66.4097H1076.64V68.068H1080.45V71.874H1082.12V68.068H1085.92V66.4097Z" fill="#FF8400"/>
<path d="M1085.92 98.2359H1082.12V94.4299H1080.45V98.2359H1076.64V99.8942H1080.45V103.7H1082.12V99.8942H1085.92V98.2359Z" fill="#FF8400"/>
<path d="M1085.92 114.559H1082.12V110.753H1080.45V114.559H1076.64V116.217H1080.45V120.023H1082.12V116.217H1085.92V114.559Z" fill="#FF8400"/>
<path d="M1085.92 129.923H1082.12V126.117H1080.45V129.923H1076.64V131.581H1080.45V135.387H1082.12V131.581H1085.92V129.923Z" fill="#FF8400"/>
<path d="M1085.92 145.277H1082.12V141.471H1080.45V145.277H1076.64V146.935H1080.45V150.741H1082.12V146.935H1085.92V145.277Z" fill="#FF8400"/>
<path d="M972.092 161.19H968.282V157.384H966.623V161.19H962.813V162.848H966.623V166.654H968.282V162.848H972.092V161.19Z" fill="#FF8400"/>
<path d="M713.132 176.543H709.333V172.737H707.664V176.543H703.864V178.202H707.664V182.008H709.333V178.202H713.132V176.543Z" fill="#FF8400"/>
<path d="M532.417 66.1302H528.608V62.3242H526.948V66.1302H523.139V67.7984H526.948V71.5944H528.608V67.7984H532.417V66.1302Z" fill="#FF8400"/>
<path d="M548.484 113.969H544.675V110.163H543.015V113.969H539.206V115.628H543.015V119.434H544.675V115.628H548.484V113.969Z" fill="#FF8400"/>
<path d="M548.484 129.633H544.675V125.827H543.015V129.633H539.206V131.291H543.015V135.097H544.675V131.291H548.484V129.633Z" fill="#FF8400"/>
<path d="M548.484 145.297H544.675V141.491H543.015V145.297H539.206V146.955H543.015V150.761H544.675V146.955H548.484V145.297Z" fill="#FF8400"/>
<path d="M548.484 160.95H544.675V157.144H543.015V160.95H539.206V162.608H543.015V166.414H544.675V162.608H548.484V160.95Z" fill="#FF8400"/>
<path d="M548.484 98.3062H544.675V94.5002H543.015V98.3062H539.206V99.9745H543.015V103.77H544.675V99.9745H548.484V98.3062Z" fill="#FF8400"/>
<path d="M548.484 82.6524H544.675V78.8464H543.015V82.6524H539.206V84.3107H543.015V88.1166H544.675V84.3107H548.484V82.6524Z" fill="#FF8400"/>
<path d="M597.645 113.969H593.836V110.163H592.176V113.969H588.367V115.628H592.176V119.434H593.836V115.628H597.645V113.969Z" fill="#FF8400"/>
<path d="M597.645 129.633H593.836V125.827H592.176V129.633H588.367V131.291H592.176V135.097H593.836V131.291H597.645V129.633Z" fill="#FF8400"/>
<path d="M597.645 145.297H593.836V141.491H592.176V145.297H588.367V146.955H592.176V150.761H593.836V146.955H597.645V145.297Z" fill="#FF8400"/>
<path d="M597.645 160.95H593.836V157.144H592.176V160.95H588.367V162.608H592.176V166.414H593.836V162.608H597.645V160.95Z" fill="#FF8400"/>
<path d="M597.645 98.3062H593.836V94.5002H592.176V98.3062H588.367V99.9745H592.176V103.77H593.836V99.9745H597.645V98.3062Z" fill="#FF8400"/>
<path d="M597.645 82.6524H593.836V78.8464H592.176V82.6524H588.367V84.3107H592.176V88.1166H593.836V84.3107H597.645V82.6524Z" fill="#FF8400"/>
<path d="M631.017 113.969H627.208V110.163H625.549V113.969H621.739V115.628H625.549V119.434H627.208V115.628H631.017V113.969Z" fill="#FF8400"/>
<path d="M631.017 129.633H627.208V125.827H625.549V129.633H621.739V131.291H625.549V135.097H627.208V131.291H631.017V129.633Z" fill="#FF8400"/>
<path d="M631.017 145.297H627.208V141.491H625.549V145.297H621.739V146.955H625.549V150.761H627.208V146.955H631.017V145.297Z" fill="#FF8400"/>
<path d="M663.841 113.969H660.031V110.163H658.372V113.969H654.562V115.628H658.372V119.434H660.031V115.628H663.841V113.969Z" fill="#FF8400"/>
<path d="M663.841 129.633H660.031V125.827H658.372V129.633H654.562V131.291H658.372V135.097H660.031V131.291H663.841V129.633Z" fill="#FF8400"/>
<path d="M663.841 145.297H660.031V141.491H658.372V145.297H654.562V146.955H658.372V150.761H660.031V146.955H663.841V145.297Z" fill="#FF8400"/>
<path d="M631.017 98.3062H627.208V94.5002H625.549V98.3062H621.739V99.9745H625.549V103.77H627.208V99.9745H631.017V98.3062Z" fill="#FF8400"/>
<path d="M631.017 82.6524H627.208V78.8464H625.549V82.6524H621.739V84.3107H625.549V88.1166H627.208V84.3107H631.017V82.6524Z" fill="#FF8400"/>
<path d="M564.69 113.969H560.881V110.163H559.221V113.969H555.412V115.628H559.221V119.434H560.881V115.628H564.69V113.969Z" fill="#FF8400"/>
<path d="M564.69 129.633H560.881V125.827H559.221V129.633H555.412V131.291H559.221V135.097H560.881V131.291H564.69V129.633Z" fill="#FF8400"/>
<path d="M564.69 145.297H560.881V141.491H559.221V145.297H555.412V146.955H559.221V150.761H560.881V146.955H564.69V145.297Z" fill="#FF8400"/>
<path d="M564.69 98.3062H560.881V94.5002H559.221V98.3062H555.412V99.9745H559.221V103.77H560.881V99.9745H564.69V98.3062Z" fill="#FF8400"/>
<path d="M564.69 82.6524H560.881V78.8464H559.221V82.6524H555.412V84.3107H559.221V88.1166H560.881V84.3107H564.69V82.6524Z" fill="#FF8400"/>
<path d="M548.484 66.9891H544.675V63.1831H543.015V66.9891H539.206V68.6473H543.015V72.4533H544.675V68.6473H548.484V66.9891Z" fill="#FF8400"/>
<path d="M647.355 113.969H643.546V110.163H641.886V113.969H638.077V115.628H641.886V119.434H643.546V115.628H647.355V113.969Z" fill="#FF8400"/>
<path d="M647.355 129.633H643.546V125.827H641.886V129.633H638.077V131.291H641.886V135.097H643.546V131.291H647.355V129.633Z" fill="#FF8400"/>
<path d="M647.355 145.297H643.546V141.491H641.886V145.297H638.077V146.955H641.886V150.761H643.546V146.955H647.355V145.297Z" fill="#FF8400"/>
<path d="M647.355 160.95H643.546V157.144H641.886V160.95H638.077V162.608H641.886V166.414H643.546V162.608H647.355V160.95Z" fill="#FF8400"/>
<path d="M647.355 98.3062H643.546V94.5002H641.886V98.3062H638.077V99.9745H641.886V103.77H643.546V99.9745H647.355V98.3062Z" fill="#FF8400"/>
<path d="M647.355 82.6524H643.546V78.8464H641.886V82.6524H638.077V84.3107H641.886V88.1166H643.546V84.3107H647.355V82.6524Z" fill="#FF8400"/>
<path d="M647.355 66.9891H643.546V63.1831H641.886V66.9891H638.077V68.6473H641.886V72.4533H643.546V68.6473H647.355V66.9891Z" fill="#FF8400"/>
<path d="M581.437 113.969H577.638V110.163H575.968V113.969H572.159V115.628H575.968V119.434H577.638V115.628H581.437V113.969Z" fill="#FF8400"/>
<path d="M581.437 129.633H577.638V125.827H575.968V129.633H572.159V131.291H575.968V135.097H577.638V131.291H581.437V129.633Z" fill="#FF8400"/>
<path d="M581.437 145.297H577.638V141.491H575.968V145.297H572.159V146.955H575.968V150.761H577.638V146.955H581.437V145.297Z" fill="#FF8400"/>
<path d="M581.437 98.3062H577.638V94.5002H575.968V98.3062H572.159V99.9745H575.968V103.77H577.638V99.9745H581.437V98.3062Z" fill="#FF8400"/>
<path d="M581.437 82.6524H577.638V78.8464H575.968V82.6524H572.159V84.3107H575.968V88.1166H577.638V84.3107H581.437V82.6524Z" fill="#FF8400"/>
<path d="M581.437 66.9891H577.638V63.1831H575.968V66.9891H572.159V68.6473H575.968V72.4533H577.638V68.6473H581.437V66.9891Z" fill="#FF8400"/>
<path d="M548.484 51.3255H544.675V47.5195H543.015V51.3255H539.206V52.9937H543.015V56.7897H544.675V52.9937H548.484V51.3255Z" fill="#FF8400"/>
<path d="M466.779 50.7764H462.97V46.9705H461.31V50.7764H457.501V52.4347H461.31V56.2407H462.97V52.4347H466.779V50.7764Z" fill="#FF8400"/>
<path d="M450.443 113.869H446.634V110.063H444.974V113.869H441.165V115.528H444.974V119.334H446.634V115.528H450.443V113.869Z" fill="#FF8400"/>
<path d="M450.443 98.1263H446.634V94.3203H444.974V98.1263H441.165V99.7945H444.974V103.591H446.634V99.7945H450.443V98.1263Z" fill="#FF8400"/>
<path d="M450.443 82.1031H446.634V78.2971H444.974V82.1031H441.165V83.7613H444.974V87.5673H446.634V83.7613H450.443V82.1031Z" fill="#FF8400"/>
<path d="M450.443 66.6492H446.634V62.8433H444.974V66.6492H441.165V68.3075H444.974V72.1135H446.634V68.3075H450.443V66.6492Z" fill="#FF8400"/>
<path d="M450.443 50.9158H446.634V47.1099H444.974V50.9158H441.165V52.5741H444.974V56.3801H446.634V52.5741H450.443V50.9158Z" fill="#FF8400"/>
<path d="M450.443 35.5523H446.634V31.7463H444.974V35.5523H441.165V37.2206H444.974V41.0165H446.634V37.2206H450.443V35.5523Z" fill="#FF8400"/>
<path d="M335.224 98.1263H331.415V94.3203H329.756V98.1263H325.946V99.7945H329.756V103.591H331.415V99.7945H335.224V98.1263Z" fill="#FF8400"/>
<path d="M335.224 176.823H331.415V173.017H329.756V176.823H325.946V178.481H329.756V182.287H331.415V178.481H335.224V176.823Z" fill="#FF8400"/>
<path d="M335.224 192.736H331.415V188.93H329.756V192.736H325.946V194.394H329.756V198.2H331.415V194.394H335.224V192.736Z" fill="#FF8400"/>
<path d="M335.224 208.369H331.415V204.563H329.756V208.369H325.946V210.028H329.756V213.834H331.415V210.028H335.224V208.369Z" fill="#FF8400"/>
<path d="M335.224 161.08H331.415V157.274H329.756V161.08H325.946V162.748H329.756V166.544H331.415V162.748H335.224V161.08Z" fill="#FF8400"/>
<path d="M335.224 145.346H331.415V141.54H329.756V145.346H325.946V147.005H329.756V150.811H331.415V147.005H335.224V145.346Z" fill="#FF8400"/>
<path d="M335.224 129.603H331.415V125.797H329.756V129.603H325.946V131.261H329.756V135.067H331.415V131.261H335.224V129.603Z" fill="#FF8400"/>
<path d="M335.224 113.869H331.415V110.063H329.756V113.869H325.946V115.528H329.756V119.334H331.415V115.528H335.224V113.869Z" fill="#FF8400"/>
<path d="M368.049 98.1263H364.239V94.3203H362.58V98.1263H358.771V99.7945H362.58V103.591H364.239V99.7945H368.049V98.1263Z" fill="#FF8400"/>
<path d="M368.049 176.823H364.239V173.017H362.58V176.823H358.771V178.481H362.58V182.287H364.239V178.481H368.049V176.823Z" fill="#FF8400"/>
<path d="M368.049 161.08H364.239V157.274H362.58V161.08H358.771V162.748H362.58V166.544H364.239V162.748H368.049V161.08Z" fill="#FF8400"/>
<path d="M368.049 145.346H364.239V141.54H362.58V145.346H358.771V147.005H362.58V150.811H364.239V147.005H368.049V145.346Z" fill="#FF8400"/>
<path d="M368.049 129.603H364.239V125.797H362.58V129.603H358.771V131.261H362.58V135.067H364.239V131.261H368.049V129.603Z" fill="#FF8400"/>
<path d="M368.049 113.869H364.239V110.063H362.58V113.869H358.771V115.528H362.58V119.334H364.239V115.528H368.049V113.869Z" fill="#FF8400"/>
<path d="M417.209 98.1263H413.4V94.3203H411.74V98.1263H407.931V99.7945H411.74V103.591H413.4V99.7945H417.209V98.1263Z" fill="#FF8400"/>
<path d="M417.209 176.823H413.4V173.017H411.74V176.823H407.931V178.481H411.74V182.287H413.4V178.481H417.209V176.823Z" fill="#FF8400"/>
<path d="M417.209 161.08H413.4V157.274H411.74V161.08H407.931V162.748H411.74V166.544H413.4V162.748H417.209V161.08Z" fill="#FF8400"/>
<path d="M417.209 145.346H413.4V141.54H411.74V145.346H407.931V147.005H411.74V150.811H413.4V147.005H417.209V145.346Z" fill="#FF8400"/>
<path d="M417.209 129.603H413.4V125.797H411.74V129.603H407.931V131.261H411.74V135.067H413.4V131.261H417.209V129.603Z" fill="#FF8400"/>
<path d="M417.209 113.869H413.4V110.063H411.74V113.869H407.931V115.528H411.74V119.334H413.4V115.528H417.209V113.869Z" fill="#FF8400"/>
<path d="M499.183 98.1263H495.374V94.3203H493.715V98.1263H489.905V99.7945H493.715V103.591H495.374V99.7945H499.183V98.1263Z" fill="#FF8400"/>
<path d="M499.183 176.823H495.374V173.017H493.715V176.823H489.905V178.481H493.715V182.287H495.374V178.481H499.183V176.823Z" fill="#FF8400"/>
<path d="M499.183 161.08H495.374V157.274H493.715V161.08H489.905V162.748H493.715V166.544H495.374V162.748H499.183V161.08Z" fill="#FF8400"/>
<path d="M499.183 145.346H495.374V141.54H493.715V145.346H489.905V147.005H493.715V150.811H495.374V147.005H499.183V145.346Z" fill="#FF8400"/>
<path d="M499.183 129.603H495.374V125.797H493.715V129.603H489.905V131.261H493.715V135.067H495.374V131.261H499.183V129.603Z" fill="#FF8400"/>
<path d="M499.183 113.869H495.374V110.063H493.715V113.869H489.905V115.528H493.715V119.334H495.374V115.528H499.183V113.869Z" fill="#FF8400"/>
<path d="M302.682 176.823H298.872V173.017H297.213V176.823H293.403V178.481H297.213V182.287H298.872V178.481H302.682V176.823Z" fill="#FF8400"/>
<path d="M302.682 192.736H298.872V188.93H297.213V192.736H293.403V194.394H297.213V198.2H298.872V194.394H302.682V192.736Z" fill="#FF8400"/>
<path d="M302.682 208.369H298.872V204.563H297.213V208.369H293.403V210.028H297.213V213.834H298.872V210.028H302.682V208.369Z" fill="#FF8400"/>
<path d="M302.682 161.08H298.872V157.274H297.213V161.08H293.403V162.748H297.213V166.544H298.872V162.748H302.682V161.08Z" fill="#FF8400"/>
<path d="M302.682 145.346H298.872V141.54H297.213V145.346H293.403V147.005H297.213V150.811H298.872V147.005H302.682V145.346Z" fill="#FF8400"/>
<path d="M302.682 129.603H298.872V125.797H297.213V129.603H293.403V131.261H297.213V135.067H298.872V131.261H302.682V129.603Z" fill="#FF8400"/>
<path d="M302.682 113.869H298.872V110.063H297.213V113.869H293.403V115.528H297.213V119.334H298.872V115.528H302.682V113.869Z" fill="#FF8400"/>
<path d="M270.698 176.823H266.889V173.017H265.229V176.823H261.42V178.481H265.229V182.287H266.889V178.481H270.698V176.823Z" fill="#FF8400"/>
<path d="M270.698 161.08H266.889V157.274H265.229V161.08H261.42V162.748H265.229V166.544H266.889V162.748H270.698V161.08Z" fill="#FF8400"/>
<path d="M270.698 145.346H266.889V141.54H265.229V145.346H261.42V147.005H265.229V150.811H266.889V147.005H270.698V145.346Z" fill="#FF8400"/>
<path d="M270.698 129.603H266.889V125.797H265.229V129.603H261.42V131.261H265.229V135.067H266.889V131.261H270.698V129.603Z" fill="#FF8400"/>
<path d="M270.698 113.869H266.889V110.063H265.229V113.869H261.42V115.528H265.229V119.334H266.889V115.528H270.698V113.869Z" fill="#FF8400"/>
<path d="M73.6356 114.459H69.8264V110.653H68.1667V114.459H64.3574V116.117H68.1667V119.923H69.8264V116.117H73.6356V114.459Z" fill="#FF8400"/>
<path d="M73.6356 193.256H69.8264V189.45H68.1667V193.256H64.3574V194.914H68.1667V198.72H69.8264V194.914H73.6356V193.256Z" fill="#FF8400"/>
<path d="M73.6356 177.492H69.8264V173.687H68.1667V177.492H64.3574V179.161H68.1667V182.957H69.8264V179.161H73.6356V177.492Z" fill="#FF8400"/>
<path d="M73.6356 161.739H69.8264V157.933H68.1667V161.739H64.3574V163.397H68.1667V167.203H69.8264V163.397H73.6356V161.739Z" fill="#FF8400"/>
<path d="M73.6356 240.536H69.8264V236.73H68.1667V240.536H64.3574V242.194H68.1667V246H69.8264V242.194H73.6356V240.536Z" fill="#FF8400"/>
<path d="M73.6356 224.773H69.8264V220.977H68.1667V224.773H64.3574V226.441H68.1667V230.247H69.8264V226.441H73.6356V224.773Z" fill="#FF8400"/>
<path d="M73.6356 209.738H69.8264V205.932H68.1667V209.738H64.3574V211.396H68.1667V215.202H69.8264V211.396H73.6356V209.738Z" fill="#FF8400"/>
<path d="M73.6356 145.976H69.8264V142.17H68.1667V145.976H64.3574V147.634H68.1667V151.44H69.8264V147.634H73.6356V145.976Z" fill="#FF8400"/>
<path d="M73.6356 130.212H69.8264V126.406H68.1667V130.212H64.3574V131.881H68.1667V135.677H69.8264V131.881H73.6356V130.212Z" fill="#FF8400"/>
<path d="M90.3925 98.0965H86.5832V94.2905H84.9235V98.0965H81.1143V99.7548H84.9235V103.561H86.5832V99.7548H90.3925V98.0965Z" fill="#FF8400"/>
<path d="M90.3925 176.893H86.5832V173.087H84.9235V176.893H81.1143V178.551H84.9235V182.357H86.5832V178.551H90.3925V176.893Z" fill="#FF8400"/>
<path d="M90.3925 161.14H86.5832V157.334H84.9235V161.14H81.1143V162.798H84.9235V166.604H86.5832V162.798H90.3925V161.14Z" fill="#FF8400"/>
<path d="M90.3925 145.376H86.5832V141.57H84.9235V145.376H81.1143V147.034H84.9235V150.84H86.5832V147.034H90.3925V145.376Z" fill="#FF8400"/>
<path d="M90.3925 224.173H86.5832V220.367H84.9235V224.173H81.1143V225.831H84.9235V229.637H86.5832V225.831H90.3925V224.173Z" fill="#FF8400"/>
<path d="M90.3925 208.42H86.5832V204.614H84.9235V208.42H81.1143V210.078H84.9235V213.884H86.5832V210.078H90.3925V208.42Z" fill="#FF8400"/>
<path d="M90.3925 192.656H86.5832V188.85H84.9235V192.656H81.1143V194.314H84.9235V198.12H86.5832V194.314H90.3925V192.656Z" fill="#FF8400"/>
<path d="M90.3925 129.613H86.5832V125.807H84.9235V129.613H81.1143V131.271H84.9235V135.077H86.5832V131.271H90.3925V129.613Z" fill="#FF8400"/>
<path d="M90.3925 113.86H86.5832V110.054H84.9235V113.86H81.1143V115.518H84.9235V119.324H86.5832V115.518H90.3925V113.86Z" fill="#FF8400"/>
<path d="M188.433 114.009H184.634V110.203H182.965V114.009H179.155V115.668H182.965V119.474H184.634V115.668H188.433V114.009Z" fill="#FF8400"/>
<path d="M188.433 192.806H184.634V189H182.965V192.806H179.155V194.464H182.965V198.27H184.634V194.464H188.433V192.806Z" fill="#FF8400"/>
<path d="M188.433 177.043H184.634V173.247H182.965V177.043H179.155V178.711H182.965V182.517H184.634V178.711H188.433V177.043Z" fill="#FF8400"/>
<path d="M188.433 161.289H184.634V157.483H182.965V161.289H179.155V162.948H182.965V166.754H184.634V162.948H188.433V161.289Z" fill="#FF8400"/>
<path d="M188.433 240.086H184.634V236.28H182.965V240.086H179.155V241.744H182.965V245.55H184.634V241.744H188.433V240.086Z" fill="#FF8400"/>
<path d="M188.433 224.323H184.634V220.517H182.965V224.323H179.155V225.991H182.965V229.787H184.634V225.991H188.433V224.323Z" fill="#FF8400"/>
<path d="M188.433 208.57H184.634V204.764H182.965V208.57H179.155V210.228H182.965V214.034H184.634V210.228H188.433V208.57Z" fill="#FF8400"/>
<path d="M285.654 192.806H281.845V189H280.185V192.806H276.376V194.464H280.185V198.27H281.845V194.464H285.654V192.806Z" fill="#FF8400"/>
<path d="M285.654 177.043H281.845V173.247H280.185V177.043H276.376V178.711H280.185V182.517H281.845V178.711H285.654V177.043Z" fill="#FF8400"/>
<path d="M285.654 240.086H281.845V236.28H280.185V240.086H276.376V241.744H280.185V245.55H281.845V241.744H285.654V240.086Z" fill="#FF8400"/>
<path d="M285.654 224.323H281.845V220.517H280.185V224.323H276.376V225.991H280.185V229.787H281.845V225.991H285.654V224.323Z" fill="#FF8400"/>
<path d="M285.654 208.57H281.845V204.764H280.185V208.57H276.376V210.228H280.185V214.034H281.845V210.228H285.654V208.57Z" fill="#FF8400"/>
<path d="M188.433 145.526H184.634V141.72H182.965V145.526H179.155V147.184H182.965V150.99H184.634V147.184H188.433V145.526Z" fill="#FF8400"/>
<path d="M188.433 129.763H184.634V125.957H182.965V129.763H179.155V131.421H182.965V135.227H184.634V131.421H188.433V129.763Z" fill="#FF8400"/>
</g>
<defs>
<clipPath id="clip0">
<path d="M0 0H1448V246H0V0Z" fill="white"/>
</clipPath>
</defs>
</svg>
