<svg width="32" height="32" viewBox="0 0 32 32" fill="none" xmlns="http://www.w3.org/2000/svg">
<path d="M16.0003 18.6665C18.2137 18.6665 19.987 16.8798 19.987 14.6665L20.0003 6.6665C20.0003 4.45317 18.2137 2.6665 16.0003 2.6665C13.787 2.6665 12.0003 4.45317 12.0003 6.6665V14.6665C12.0003 16.8798 13.787 18.6665 16.0003 18.6665ZM23.067 14.6665C23.067 18.6665 19.6803 21.4665 16.0003 21.4665C12.3203 21.4665 8.93366 18.6665 8.93366 14.6665H6.66699C6.66699 19.2132 10.2937 22.9732 14.667 23.6265V27.9998H17.3337V23.6265C21.707 22.9865 25.3337 19.2265 25.3337 14.6665H23.067Z" fill="#FF8400"/>
</svg>
