<svg width="32" height="32" viewBox="0 0 32 32" fill="none" xmlns="http://www.w3.org/2000/svg">
<path d="M25.3333 14.667H23.0667C23.0667 15.6537 22.8533 16.5737 22.4933 17.4003L24.1333 19.0403C24.88 17.7337 25.3333 16.2537 25.3333 14.667ZM19.9733 14.8937C19.9733 14.8137 20 14.747 20 14.667V6.66699C20 4.45366 18.2133 2.66699 16 2.66699C13.7867 2.66699 12 4.45366 12 6.66699V6.90699L19.9733 14.8937ZM5.69333 4.00033L4 5.69366L12.0133 13.707V14.667C12.0133 16.8803 13.7867 18.667 16 18.667C16.2933 18.667 16.5867 18.627 16.8667 18.5603L19.08 20.7737C18.1333 21.2137 17.08 21.467 16 21.467C12.32 21.467 8.93333 18.667 8.93333 14.667H6.66667C6.66667 19.2137 10.2933 22.9737 14.6667 23.627V28.0003H17.3333V23.627C18.5467 23.4537 19.6933 23.027 20.72 22.427L26.3067 28.0003L28 26.307L5.69333 4.00033Z" fill="#FF8400"/>
</svg>
