<svg width="124" height="35" viewBox="0 0 124 35" fill="none" xmlns="http://www.w3.org/2000/svg">
<path fill-rule="evenodd" clip-rule="evenodd" d="M67.1986 9.91675C71.4877 9.91675 74.7298 13.2359 74.7298 17.4744C74.7298 21.8372 71.4877 25.2397 67.1986 25.2397C62.9094 25.2397 59.6673 21.8372 59.6673 17.4744C59.6673 13.2359 62.9094 9.91675 67.1986 9.91675ZM41.9182 10.1678L44.2163 20.4175C44.4012 21.2528 44.4626 21.9832 44.4626 21.9832H44.5035C44.524 21.9832 44.5445 21.2738 44.7708 20.4175L47.397 10.1678H49.6957L52.2816 20.4175C52.5074 21.2738 52.5278 21.9832 52.5483 21.9832H52.5892C52.5892 21.9832 52.6507 21.2528 52.8355 20.4175L55.2365 10.1678H57.9663L54.2106 24.9897H51.1527L48.9155 16.2216C48.6698 15.2614 48.5464 14.2803 48.5464 14.2803H48.5054C48.5054 14.2803 48.3826 15.2614 48.1364 16.2216L45.8991 24.9897H42.8418L39.1885 10.1678H41.9182ZM79.1815 10.1678L81.4802 20.4175C81.6639 21.2528 81.7264 21.9832 81.7264 21.9832H81.7674C81.7873 21.9832 81.8083 21.2738 82.0347 20.4175L84.6609 10.1678H86.959L89.5449 20.4175C89.7712 21.2738 89.7911 21.9832 89.8116 21.9832H89.8525C89.8525 21.9832 89.9145 21.2528 90.0988 20.4175L92.4998 10.1678H95.2296L91.4739 24.9897H88.4154L86.1799 16.2216C85.9331 15.2614 85.8097 14.2803 85.8097 14.2803H85.7693C85.7693 14.2803 85.6453 15.2614 85.3991 16.2216L83.1624 24.9897H80.1045L76.4524 10.1678H79.1815ZM107.787 10.1674V11.8795L101.322 21.3365C100.748 22.1922 100.255 22.6723 100.255 22.6723V22.7143C100.255 22.7143 100.665 22.6723 101.343 22.6723H107.869V24.9899H96.9301V23.2568L103.394 13.8208C103.969 12.9651 104.462 12.4844 104.462 12.4844V12.443C104.462 12.443 104.052 12.4844 103.375 12.4844H97.2594V10.1674H107.787ZM117.082 10.1674L122.212 24.9899H119.483L118.251 21.1901H113.141L111.91 24.9899H109.181L114.312 10.1674H117.082ZM67.1986 12.3802C64.5308 12.3802 62.3965 14.5513 62.3965 17.4744C62.3965 20.5217 64.5308 22.7769 67.1986 22.7769C69.8657 22.7769 72.0006 20.5217 72.0006 17.4744C72.0006 14.5513 69.8657 12.3802 67.1986 12.3802ZM115.727 12.7352H115.686C115.686 12.7352 115.357 14.1965 115.071 15.0318L113.778 18.9979H117.594L116.302 15.0318C116.035 14.1965 115.727 12.7352 115.727 12.7352ZM121.283 10.1174V10.4569H120.569V12.2886H120.173V10.4569H119.458V10.1174H121.283ZM121.911 10.1175L122.337 11.1908C122.386 11.3191 122.448 11.5087 122.448 11.5087H122.453C122.453 11.5087 122.512 11.3191 122.561 11.1908L122.988 10.1175H123.411L123.585 12.2886H123.192L123.101 11.0747C123.092 10.9312 123.097 10.7381 123.097 10.7381H123.092C123.092 10.7381 123.027 10.9493 122.975 11.0747L122.622 11.9153H122.276L121.927 11.0747C121.875 10.9493 121.807 10.7352 121.807 10.7352H121.801C121.801 10.7352 121.807 10.9312 121.798 11.0747L121.706 12.2886H121.31L121.488 10.1175H121.911Z" fill="#FF8400"/>
<path fill-rule="evenodd" clip-rule="evenodd" d="M12.9288 29.0676C12.155 29.3692 11.256 30.089 10.4319 29.4024C9.60772 28.7193 10.3196 27.2861 10.3196 27.2861C10.3196 27.2861 16.4634 12.9314 16.8173 11.3512C17.1126 10.0247 16.3722 10.1419 15.5328 10.8752C15.0503 11.2975 8.55723 16.9296 7.59915 17.4138C6.93997 17.7468 6.12753 18.0618 5.57772 17.5135C5.02908 16.9663 5.65025 15.6439 5.65025 15.6439L12.3948 1.03784C11.9719 1.17143 11.5508 1.31668 11.1337 1.48526C2.35021 5.03076 -1.88802 15.0081 1.66704 23.7668C5.2221 32.5262 15.2246 36.7542 24.0099 33.2081C30.6719 30.5183 34.716 24.1273 34.73 17.3776C27.1145 21.4883 13.3991 28.8838 12.9288 29.0676Z" fill="#FF8400"/>
<path fill-rule="evenodd" clip-rule="evenodd" d="M16.389 0.275822C14.8677 3.48066 12.8451 7.86966 12.9293 8.38416C13.0668 9.20724 13.9874 8.47516 13.9874 8.47516C13.9874 8.47516 20.0885 3.29516 21.2373 2.61791C22.3855 1.94182 22.7312 2.89674 22.5598 3.49291C22.4299 3.94149 18.8257 13.1418 18.9796 14.1761C19.1545 15.3334 20.426 14.3662 20.8875 14.0215C21.2455 13.7537 30.0881 5.64249 30.0881 5.64249C26.5787 1.91207 21.5321 -0.080011 16.389 0.275822Z" fill="#FF8400"/>
</svg>
